<?xml version="1.0" encoding="UTF-8" standalone="no"?>
<!DOCTYPE svg PUBLIC "-//W3C//DTD SVG 1.1//EN"
 "http://www.w3.org/Graphics/SVG/1.1/DTD/svg11.dtd">
<!-- Generated by graphviz version 2.38.0 (20140413.2041)
 -->
<!-- Title: G Pages: 1 -->
<svg width="951pt" height="119pt"
 viewBox="0.00 0.00 951.28 119.20" xmlns="http://www.w3.org/2000/svg" xmlns:xlink="http://www.w3.org/1999/xlink">
<g id="graph0" class="graph" transform="scale(1 1) rotate(0) translate(4 115.197)">
<title>G</title>
<polygon fill="white" stroke="none" points="-4,4 -4,-115.197 947.285,-115.197 947.285,4 -4,4"/>
<!-- INPUT -->
<g id="node1" class="node"><title>INPUT</title>
<ellipse fill="none" stroke="black" cx="37.6967" cy="-73.5" rx="37.8943" ry="37.8943"/>
<text text-anchor="middle" x="37.6967" y="-69.8" font-family="Times New Roman,serif" font-size="14.00">INPUT</text>
</g>
<!-- Conceptualizer -->
<g id="node3" class="node"><title>Conceptualizer</title>
<polygon fill="white" stroke="black" points="111.393,-55.5 111.393,-91.5 211.393,-91.5 211.393,-55.5 111.393,-55.5"/>
<text text-anchor="middle" x="161.393" y="-69.8" font-family="Times New Roman,serif" font-size="14.00">Conceptualizer</text>
</g>
<!-- INPUT&#45;&gt;Conceptualizer -->
<g id="edge7" class="edge"><title>INPUT&#45;&gt;Conceptualizer</title>
<path fill="none" stroke="black" d="M75.4819,-73.5C75.4819,-73.5 101.076,-73.5 101.076,-73.5"/>
<polygon fill="black" stroke="black" points="101.076,-77.0001 111.076,-73.5 101.076,-70.0001 101.076,-77.0001"/>
</g>
<!-- OUTPUT -->
<g id="node2" class="node"><title>OUTPUT</title>
<ellipse fill="none" stroke="black" cx="895.839" cy="-49.5" rx="47.3916" ry="47.3916"/>
<text text-anchor="middle" x="895.839" y="-45.8" font-family="Times New Roman,serif" font-size="14.00">OUTPUT</text>
</g>
<!-- Semantic_WM -->
<g id="node7" class="node"><title>Semantic_WM</title>
<polygon fill="white" stroke="black" points="258.893,-55.5 258.893,-91.5 359.893,-91.5 359.893,-55.5 258.893,-55.5"/>
<text text-anchor="middle" x="309.393" y="-69.8" font-family="Times New Roman,serif" font-size="14.00">Semantic_WM</text>
</g>
<!-- Conceptualizer&#45;&gt;Semantic_WM -->
<g id="edge1" class="edge"><title>Conceptualizer&#45;&gt;Semantic_WM</title>
<path fill="none" stroke="black" d="M211.499,-73.5C211.499,-73.5 248.835,-73.5 248.835,-73.5"/>
<polygon fill="black" stroke="black" points="248.835,-77.0001 258.835,-73.5 248.835,-70.0001 248.835,-77.0001"/>
</g>
<!-- Grammatical_WM -->
<g id="node4" class="node"><title>Grammatical_WM</title>
<polygon fill="white" stroke="black" points="534.393,-31.5 534.393,-67.5 654.393,-67.5 654.393,-31.5 534.393,-31.5"/>
<text text-anchor="middle" x="594.393" y="-45.8" font-family="Times New Roman,serif" font-size="14.00">Grammatical_WM</text>
</g>
<!-- Phonological_WM -->
<g id="node8" class="node"><title>Phonological_WM</title>
<polygon fill="white" stroke="black" points="690.393,-31.5 690.393,-67.5 812.393,-67.5 812.393,-31.5 690.393,-31.5"/>
<text text-anchor="middle" x="751.393" y="-45.8" font-family="Times New Roman,serif" font-size="14.00">Phonological_WM</text>
</g>
<!-- Grammatical_WM&#45;&gt;Phonological_WM -->
<g id="edge6" class="edge"><title>Grammatical_WM&#45;&gt;Phonological_WM</title>
<path fill="none" stroke="black" d="M654.645,-49.5C654.645,-49.5 680.265,-49.5 680.265,-49.5"/>
<polygon fill="black" stroke="black" points="680.265,-53.0001 690.265,-49.5 680.265,-46.0001 680.265,-53.0001"/>
</g>
<!-- Grammatical_LTM -->
<g id="node5" class="node"><title>Grammatical_LTM</title>
<polygon fill="white" stroke="black" points="247.393,-0.5 247.393,-36.5 371.393,-36.5 371.393,-0.5 247.393,-0.5"/>
<text text-anchor="middle" x="309.393" y="-14.8" font-family="Times New Roman,serif" font-size="14.00">Grammatical_LTM</text>
</g>
<!-- Cxn_retrieval -->
<g id="node6" class="node"><title>Cxn_retrieval</title>
<polygon fill="white" stroke="black" points="407.393,-8.5 407.393,-44.5 498.393,-44.5 498.393,-8.5 407.393,-8.5"/>
<text text-anchor="middle" x="452.893" y="-22.8" font-family="Times New Roman,serif" font-size="14.00">Cxn_retrieval</text>
</g>
<!-- Grammatical_LTM&#45;&gt;Cxn_retrieval -->
<g id="edge4" class="edge"><title>Grammatical_LTM&#45;&gt;Cxn_retrieval</title>
<path fill="none" stroke="black" d="M371.5,-22.5C371.5,-22.5 397.133,-22.5 397.133,-22.5"/>
<polygon fill="black" stroke="black" points="397.133,-26.0001 407.133,-22.5 397.133,-19.0001 397.133,-26.0001"/>
</g>
<!-- Cxn_retrieval&#45;&gt;Grammatical_WM -->
<g id="edge5" class="edge"><title>Cxn_retrieval&#45;&gt;Grammatical_WM</title>
<path fill="none" stroke="black" d="M498.444,-38C498.444,-38 524.21,-38 524.21,-38"/>
<polygon fill="black" stroke="black" points="524.21,-41.5001 534.21,-38 524.21,-34.5001 524.21,-41.5001"/>
</g>
<!-- Semantic_WM&#45;&gt;Grammatical_WM -->
<g id="edge3" class="edge"><title>Semantic_WM&#45;&gt;Grammatical_WM</title>
<path fill="none" stroke="black" d="M360.017,-63.6667C360.017,-63.6667 524.364,-63.6667 524.364,-63.6667"/>
<polygon fill="black" stroke="black" points="524.364,-67.1668 534.364,-63.6667 524.364,-60.1668 524.364,-67.1668"/>
</g>
<!-- Semantic_WM&#45;&gt;Cxn_retrieval -->
<g id="edge2" class="edge"><title>Semantic_WM&#45;&gt;Cxn_retrieval</title>
<path fill="none" stroke="black" d="M360.124,-59.3333C401.551,-59.3333 453.285,-59.3333 453.285,-59.3333 453.285,-59.3333 453.285,-54.8366 453.285,-54.8366"/>
<polygon fill="black" stroke="black" points="456.785,-54.8365 453.285,-44.8366 449.785,-54.8366 456.785,-54.8365"/>
</g>
<!-- Phonological_WM&#45;&gt;OUTPUT -->
<g id="edge8" class="edge"><title>Phonological_WM&#45;&gt;OUTPUT</title>
<path fill="none" stroke="black" d="M812.651,-49.5C812.651,-49.5 838.07,-49.5 838.07,-49.5"/>
<polygon fill="black" stroke="black" points="838.07,-53.0001 848.07,-49.5 838.07,-46.0001 838.07,-53.0001"/>
</g>
</g>
</svg>
