<?xml version="1.0" encoding="UTF-8" standalone="no"?>
<!DOCTYPE svg PUBLIC "-//W3C//DTD SVG 1.1//EN"
 "http://www.w3.org/Graphics/SVG/1.1/DTD/svg11.dtd">
<!-- Generated by graphviz version 2.38.0 (20140413.2041)
 -->
<!-- Title: LinguisticWM_concise Pages: 1 -->
<svg width="722pt" height="131pt"
 viewBox="0.00 0.00 722.27 131.00" xmlns="http://www.w3.org/2000/svg" xmlns:xlink="http://www.w3.org/1999/xlink">
<g id="graph0" class="graph" transform="scale(1 1) rotate(0) translate(4 127)">
<title>LinguisticWM_concise</title>
<polygon fill="white" stroke="none" points="-4,4 -4,-127 718.271,-127 718.271,4 -4,4"/>
<g id="clust1" class="cluster"><title>cluster_linguisticWM</title>
<path fill="none" stroke="black" stroke-width="2" d="M12,-8C12,-8 694.271,-8 694.271,-8 700.271,-8 706.271,-14 706.271,-20 706.271,-20 706.271,-103 706.271,-103 706.271,-109 700.271,-115 694.271,-115 694.271,-115 12,-115 12,-115 6,-115 0,-109 0,-103 0,-103 0,-20 0,-20 0,-14 6,-8 12,-8"/>
</g>
<g id="clust4" class="cluster"><title>cluster_gramWM</title>
<path fill="none" stroke="black" stroke-width="2" d="M20,-16C20,-16 185,-16 185,-16 191,-16 197,-22 197,-28 197,-28 197,-95 197,-95 197,-101 191,-107 185,-107 185,-107 20,-107 20,-107 14,-107 8,-101 8,-95 8,-95 8,-28 8,-28 8,-22 14,-16 20,-16"/>
<text text-anchor="start" x="16" y="-91.8" font-family="consolas" font-size="14.00">Grammatical WM (t:11.0)</text>
</g>
<g id="clust5" class="cluster"><title>cluster_C2_cluster</title>
<path fill="none" stroke="white" stroke-width="2" d="M49,-24C49,-24 155,-24 155,-24 161,-24 167,-30 167,-36 167,-36 167,-64 167,-64 167,-70 161,-76 155,-76 155,-76 49,-76 49,-76 43,-76 37,-70 37,-64 37,-64 37,-36 37,-36 37,-30 43,-24 49,-24"/>
</g>
<g id="clust2" class="cluster"><title>cluster_semWM</title>
<path fill="none" stroke="black" stroke-width="2" d="M234,-16C234,-16 686.271,-16 686.271,-16 692.271,-16 698.271,-22 698.271,-28 698.271,-28 698.271,-95 698.271,-95 698.271,-101 692.271,-107 686.271,-107 686.271,-107 234,-107 234,-107 228,-107 222,-101 222,-95 222,-95 222,-28 222,-28 222,-22 228,-16 234,-16"/>
<text text-anchor="start" x="230" y="-91.8" font-family="consolas" font-size="14.00">Semantic WM (t:11.0)</text>
</g>
<g id="clust3" class="cluster"><title>cluster_SemRep</title>
<path fill="none" stroke="white" stroke-width="2" d="M242,-24C242,-24 678.271,-24 678.271,-24 684.271,-24 690.271,-30 690.271,-36 690.271,-36 690.271,-64 690.271,-64 690.271,-70 684.271,-76 678.271,-76 678.271,-76 242,-76 242,-76 236,-76 230,-70 230,-64 230,-64 230,-36 230,-36 230,-30 236,-24 242,-24"/>
</g>
<!-- ENTITY_169 -->
<g id="node1" class="node"><title>ENTITY_169</title>
<ellipse fill="lightgrey" stroke="lightgrey" cx="327.042" cy="-50" rx="89.0842" ry="18"/>
<text text-anchor="start" x="266.542" y="-46.3" font-family="consolas" font-size="14.00">ENTITY_169 (1.0)</text>
</g>
<!-- MAN_170 -->
<g id="node2" class="node"><title>MAN_170</title>
<ellipse fill="lightgrey" stroke="lightgrey" cx="608.178" cy="-50" rx="74.187" ry="18"/>
<text text-anchor="start" x="559.178" y="-46.3" font-family="consolas" font-size="14.00">MAN_170 (1.0)</text>
</g>
<!-- ENTITY_169&#45;&gt;MAN_170 -->
<g id="edge1" class="edge"><title>ENTITY_169&#45;&gt;MAN_170</title>
<path fill="none" stroke="black" stroke-width="2" d="M416.362,-50C450.668,-50 489.77,-50 523.608,-50"/>
<polygon fill="black" stroke="black" stroke-width="2" points="523.929,-53.5001 533.929,-50 523.929,-46.5001 523.929,-53.5001"/>
<text text-anchor="start" x="434.084" y="-53.4" font-family="consolas" font-size="12.00">IS_171 (1.0)</text>
</g>
<!-- MAN_172 -->
<g id="node3" class="node"><title>MAN_172</title>
<path fill="#c383dd" stroke="#c383dd" d="M147,-68C147,-68 57,-68 57,-68 51,-68 45,-62 45,-56 45,-56 45,-44 45,-44 45,-38 51,-32 57,-32 57,-32 147,-32 147,-32 153,-32 159,-38 159,-44 159,-44 159,-56 159,-56 159,-62 153,-68 147,-68"/>
<text text-anchor="start" x="53" y="-46.3" font-family="consolas" font-size="14.00">MAN_172 (0.4)</text>
</g>
<!-- MAN_172&#45;&gt;ENTITY_169 -->
<g id="edge3" class="edge"><title>MAN_172&#45;&gt;ENTITY_169</title>
<path fill="none" stroke="#c383dd" stroke-dasharray="5,2" d="M169.548,-50C187.755,-50 207.882,-50 227.469,-50"/>
<polygon fill="#c383dd" stroke="#c383dd" points="169.283,-46.5001 159.283,-50 169.283,-53.5001 169.283,-46.5001"/>
<polygon fill="#c383dd" stroke="#c383dd" points="227.65,-53.5001 237.65,-50 227.65,-46.5001 227.65,-53.5001"/>
</g>
<!-- MAN_172&#45;&gt;MAN_170 -->
<g id="edge2" class="edge"><title>MAN_172&#45;&gt;MAN_170</title>
<path fill="none" stroke="#c383dd" stroke-dasharray="5,2" d="M169.055,-67.7363C186.17,-71.5722 204.665,-75.0581 222,-77 351.967,-91.5591 386.622,-85.5192 516.084,-67 524.01,-65.8663 532.296,-64.5309 540.504,-63.1151"/>
<polygon fill="#c383dd" stroke="#c383dd" points="169.689,-64.2905 159.157,-65.4465 168.111,-71.1104 169.689,-64.2905"/>
<polygon fill="#c383dd" stroke="#c383dd" points="541.21,-66.5447 550.447,-61.3564 539.99,-59.6517 541.21,-66.5447"/>
</g>
</g>
</svg>
