<?xml version="1.0" encoding="UTF-8" standalone="no"?>
<!DOCTYPE svg PUBLIC "-//W3C//DTD SVG 1.1//EN"
 "http://www.w3.org/Graphics/SVG/1.1/DTD/svg11.dtd">
<!-- Generated by graphviz version 2.38.0 (20140413.2041)
 -->
<!-- Title: LinguisticWM_concise Pages: 1 -->
<svg width="1554pt" height="467pt"
 viewBox="0.00 0.00 1553.54 467.00" xmlns="http://www.w3.org/2000/svg" xmlns:xlink="http://www.w3.org/1999/xlink">
<g id="graph0" class="graph" transform="scale(1 1) rotate(0) translate(4 463)">
<title>LinguisticWM_concise</title>
<polygon fill="white" stroke="none" points="-4,4 -4,-463 1549.54,-463 1549.54,4 -4,4"/>
<g id="clust1" class="cluster"><title>cluster_linguisticWM</title>
<path fill="none" stroke="black" stroke-width="2" d="M20,-8C20,-8 1525.54,-8 1525.54,-8 1531.54,-8 1537.54,-14 1537.54,-20 1537.54,-20 1537.54,-439 1537.54,-439 1537.54,-445 1531.54,-451 1525.54,-451 1525.54,-451 20,-451 20,-451 14,-451 8,-445 8,-439 8,-439 8,-20 8,-20 8,-14 14,-8 20,-8"/>
</g>
<g id="clust2" class="cluster"><title>cluster_semWM</title>
<path fill="none" stroke="black" stroke-width="2" d="M404,-243C404,-243 1517.54,-243 1517.54,-243 1523.54,-243 1529.54,-249 1529.54,-255 1529.54,-255 1529.54,-430 1529.54,-430 1529.54,-436 1523.54,-442 1517.54,-442 1517.54,-442 404,-442 404,-442 398,-442 392,-436 392,-430 392,-430 392,-255 392,-255 392,-249 398,-243 404,-243"/>
<text text-anchor="start" x="400" y="-426.8" font-family="consolas" font-size="14.00">Semantic WM (t:612.0)</text>
</g>
<g id="clust3" class="cluster"><title>cluster_SemRep</title>
<path fill="none" stroke="white" stroke-width="2" d="M412,-251C412,-251 1509.54,-251 1509.54,-251 1515.54,-251 1521.54,-257 1521.54,-263 1521.54,-263 1521.54,-399 1521.54,-399 1521.54,-405 1515.54,-411 1509.54,-411 1509.54,-411 412,-411 412,-411 406,-411 400,-405 400,-399 400,-399 400,-263 400,-263 400,-257 406,-251 412,-251"/>
</g>
<g id="clust4" class="cluster"><title>cluster_gramWM</title>
<path fill="none" stroke="black" stroke-width="2" d="M28,-16C28,-16 567.843,-16 567.843,-16 573.843,-16 579.843,-22 579.843,-28 579.843,-28 579.843,-223 579.843,-223 579.843,-229 573.843,-235 567.843,-235 567.843,-235 28,-235 28,-235 22,-235 16,-229 16,-223 16,-223 16,-28 16,-28 16,-22 22,-16 28,-16"/>
<text text-anchor="start" x="24" y="-219.8" font-family="consolas" font-size="14.00">Grammatical WM (t:612.0)</text>
</g>
<g id="clust5" class="cluster"><title>cluster_C2_cluster</title>
<path fill="none" stroke="white" stroke-width="2" d="M36,-24C36,-24 559.843,-24 559.843,-24 565.843,-24 571.843,-30 571.843,-36 571.843,-36 571.843,-192 571.843,-192 571.843,-198 565.843,-204 559.843,-204 559.843,-204 36,-204 36,-204 30,-204 24,-198 24,-192 24,-192 24,-36 24,-36 24,-30 30,-24 36,-24"/>
</g>
<!-- MAN_170 -->
<g id="node1" class="node"><title>MAN_170</title>
<ellipse fill="none" stroke="lightgrey" stroke-dasharray="5,2" cx="1429.7" cy="-277" rx="74.187" ry="18"/>
<text text-anchor="start" x="1380.7" y="-273.3" font-family="consolas" font-size="14.00">MAN_170 (1.0)</text>
</g>
<!-- YOUNG_188 -->
<g id="node2" class="node"><title>YOUNG_188</title>
<ellipse fill="none" stroke="lightgrey" stroke-dasharray="5,2" cx="1429.7" cy="-331" rx="83.6854" ry="18"/>
<text text-anchor="start" x="1373.2" y="-327.3" font-family="consolas" font-size="14.00">YOUNG_188 (1.0)</text>
</g>
<!-- PUNCH_177 -->
<g id="node3" class="node"><title>PUNCH_177</title>
<ellipse fill="none" stroke="lightgrey" stroke-dasharray="5,2" cx="1111.81" cy="-385" rx="83.6854" ry="18"/>
<text text-anchor="start" x="1055.31" y="-381.3" font-family="consolas" font-size="14.00">PUNCH_177 (1.0)</text>
</g>
<!-- ENTITY_169 -->
<g id="node4" class="node"><title>ENTITY_169</title>
<ellipse fill="none" stroke="lightgrey" stroke-dasharray="5,2" cx="1111.81" cy="-277" rx="89.0842" ry="18"/>
<text text-anchor="start" x="1051.31" y="-273.3" font-family="consolas" font-size="14.00">ENTITY_169 (1.0)</text>
</g>
<!-- ENTITY_169&#45;&gt;MAN_170 -->
<g id="edge1" class="edge"><title>ENTITY_169&#45;&gt;MAN_170</title>
<path fill="none" stroke="black" stroke-width="2" stroke-dasharray="5,2" d="M1201.22,-277C1246.35,-277 1300.94,-277 1345.32,-277"/>
<polygon fill="black" stroke="black" stroke-width="2" points="1345.5,-280.5 1355.5,-277 1345.5,-273.5 1345.5,-280.5"/>
<text text-anchor="start" x="1232.35" y="-280.4" font-family="consolas" font-size="12.00">IS_171 (1.0)</text>
</g>
<!-- WOMAN_184 -->
<g id="node5" class="node"><title>WOMAN_184</title>
<ellipse fill="none" stroke="lightgrey" stroke-dasharray="5,2" cx="1429.7" cy="-385" rx="83.6854" ry="18"/>
<text text-anchor="start" x="1373.2" y="-381.3" font-family="consolas" font-size="14.00">WOMAN_184 (1.0)</text>
</g>
<!-- ACTION_174 -->
<g id="node6" class="node"><title>ACTION_174</title>
<ellipse fill="none" stroke="lightgrey" stroke-dasharray="5,2" cx="782.727" cy="-286" rx="89.0842" ry="18"/>
<text text-anchor="start" x="722.227" y="-282.3" font-family="consolas" font-size="14.00">ACTION_174 (1.0)</text>
</g>
<!-- ACTION_174&#45;&gt;PUNCH_177 -->
<g id="edge4" class="edge"><title>ACTION_174&#45;&gt;PUNCH_177</title>
<path fill="none" stroke="black" stroke-width="2" stroke-dasharray="5,2" d="M822.631,-302.249C842.524,-310.248 867.233,-319.712 889.769,-327 941.009,-343.57 1000.05,-358.874 1044.22,-369.596"/>
<polygon fill="black" stroke="black" stroke-width="2" points="1043.44,-373.007 1053.98,-371.949 1045.08,-366.202 1043.44,-373.007"/>
<text text-anchor="start" x="906.269" y="-363.4" font-family="consolas" font-size="12.00">IS_178 (1.0)</text>
</g>
<!-- ACTION_174&#45;&gt;ENTITY_169 -->
<g id="edge2" class="edge"><title>ACTION_174&#45;&gt;ENTITY_169</title>
<path fill="none" stroke="black" stroke-width="2" stroke-dasharray="5,2" d="M865.324,-279.259C873.577,-278.753 881.837,-278.317 889.769,-278 929.985,-276.394 974.349,-275.936 1012.71,-275.955"/>
<polygon fill="black" stroke="black" stroke-width="2" points="1012.84,-279.455 1022.85,-275.971 1012.85,-272.455 1012.84,-279.455"/>
<text text-anchor="start" x="889.769" y="-281.4" font-family="consolas" font-size="12.00">PATIENT_180 (1.0)</text>
</g>
<!-- ENTITY_176 -->
<g id="node8" class="node"><title>ENTITY_176</title>
<ellipse fill="none" stroke="lightgrey" stroke-dasharray="5,2" cx="1111.81" cy="-331" rx="89.0842" ry="18"/>
<text text-anchor="start" x="1051.31" y="-327.3" font-family="consolas" font-size="14.00">ENTITY_176 (1.0)</text>
</g>
<!-- ACTION_174&#45;&gt;ENTITY_176 -->
<g id="edge3" class="edge"><title>ACTION_174&#45;&gt;ENTITY_176</title>
<path fill="none" stroke="black" stroke-width="2" stroke-dasharray="5,2" d="M860.024,-295.036C902.654,-300.243 956.715,-307.106 1004.77,-314 1013.71,-315.283 1023.07,-316.69 1032.37,-318.127"/>
<polygon fill="black" stroke="black" stroke-width="2" points="1031.99,-321.61 1042.41,-319.695 1033.07,-314.694 1031.99,-321.61"/>
<text text-anchor="start" x="896.269" y="-317.4" font-family="consolas" font-size="12.00">AGENT_179 (1.0)</text>
</g>
<!-- EVENT_173 -->
<g id="node7" class="node"><title>EVENT_173</title>
<ellipse fill="none" stroke="lightgrey" stroke-dasharray="5,2" cx="491.843" cy="-301" rx="83.6854" ry="18"/>
<text text-anchor="start" x="435.343" y="-297.3" font-family="consolas" font-size="14.00">EVENT_173 (1.0)</text>
</g>
<!-- EVENT_173&#45;&gt;ACTION_174 -->
<g id="edge5" class="edge"><title>EVENT_173&#45;&gt;ACTION_174</title>
<path fill="none" stroke="black" stroke-width="2" stroke-dasharray="5,2" d="M573.697,-296.802C608.637,-294.988 649.778,-292.851 686.21,-290.96"/>
<polygon fill="black" stroke="black" stroke-width="2" points="686.547,-294.447 696.352,-290.433 686.184,-287.456 686.547,-294.447"/>
<text text-anchor="start" x="593.685" y="-299.4" font-family="consolas" font-size="12.00">IS_175 (1.0)</text>
</g>
<!-- ENTITY_176&#45;&gt;YOUNG_188 -->
<g id="edge7" class="edge"><title>ENTITY_176&#45;&gt;YOUNG_188</title>
<path fill="none" stroke="black" stroke-width="2" stroke-dasharray="5,2" d="M1201.22,-331C1243.13,-331 1293.19,-331 1335.67,-331"/>
<polygon fill="black" stroke="black" stroke-width="2" points="1335.73,-334.5 1345.73,-331 1335.73,-327.5 1335.73,-334.5"/>
<text text-anchor="start" x="1218.85" y="-334.4" font-family="consolas" font-size="12.00">MODIFY_189 (1.0)</text>
</g>
<!-- ENTITY_176&#45;&gt;WOMAN_184 -->
<g id="edge6" class="edge"><title>ENTITY_176&#45;&gt;WOMAN_184</title>
<path fill="none" stroke="black" stroke-width="2" stroke-dasharray="5,2" d="M1180.58,-342.584C1231.41,-351.275 1300.99,-363.17 1353.54,-372.152"/>
<polygon fill="black" stroke="black" stroke-width="2" points="1353.03,-375.615 1363.47,-373.85 1354.21,-368.715 1353.03,-375.615"/>
<text text-anchor="start" x="1232.35" y="-371.4" font-family="consolas" font-size="12.00">IS_185 (1.0)</text>
</g>
<!-- MAN_172 -->
<g id="node9" class="node"><title>MAN_172</title>
<path fill="#c383dd" stroke="#c383dd" d="M330.5,-88C330.5,-88 240.5,-88 240.5,-88 234.5,-88 228.5,-82 228.5,-76 228.5,-76 228.5,-64 228.5,-64 228.5,-58 234.5,-52 240.5,-52 240.5,-52 330.5,-52 330.5,-52 336.5,-52 342.5,-58 342.5,-64 342.5,-64 342.5,-76 342.5,-76 342.5,-82 336.5,-88 330.5,-88"/>
<text text-anchor="start" x="236.5" y="-66.3" font-family="consolas" font-size="14.00">MAN_172 (0.8)</text>
</g>
<!-- MAN_172&#45;&gt;MAN_170 -->
<g id="edge14" class="edge"><title>MAN_172&#45;&gt;MAN_170</title>
<path fill="none" stroke="#c383dd" stroke-dasharray="5,2" d="M353.029,-70C392.982,-70 444.827,-70 490.843,-70 490.843,-70 490.843,-70 1112.81,-70 1208.62,-70 1247.63,-32.6234 1327.85,-85 1385.81,-122.841 1412.53,-205.35 1422.99,-248.856"/>
<polygon fill="#c383dd" stroke="#c383dd" points="352.877,-66.5001 342.877,-70 352.877,-73.5001 352.877,-66.5001"/>
<polygon fill="#c383dd" stroke="#c383dd" points="1419.62,-249.805 1425.26,-258.775 1426.44,-248.247 1419.62,-249.805"/>
</g>
<!-- MAN_172&#45;&gt;ENTITY_169 -->
<g id="edge15" class="edge"><title>MAN_172&#45;&gt;ENTITY_169</title>
<path fill="none" stroke="#c383dd" stroke-dasharray="5,2" d="M351.864,-86.5594C356.693,-89.4903 361.165,-92.9399 365,-97 395.433,-129.222 357.246,-165.493 392,-193 445.435,-235.292 939.118,-200.728 1004.77,-219 1031.01,-226.303 1057.9,-241.11 1078.04,-253.934"/>
<polygon fill="#c383dd" stroke="#c383dd" points="353.328,-83.3748 342.847,-81.8242 350.073,-89.5723 353.328,-83.3748"/>
<polygon fill="#c383dd" stroke="#c383dd" points="1076.22,-256.929 1086.51,-259.466 1080.05,-251.068 1076.22,-256.929"/>
</g>
<!-- PAS_SVO_182 -->
<g id="node10" class="node"><title>PAS_SVO_182</title>
<path fill="#2689df" stroke="#2689df" d="M551.843,-184C551.843,-184 431.843,-184 431.843,-184 425.843,-184 419.843,-178 419.843,-172 419.843,-172 419.843,-160 419.843,-160 419.843,-154 425.843,-148 431.843,-148 431.843,-148 551.843,-148 551.843,-148 557.843,-148 563.843,-154 563.843,-160 563.843,-160 563.843,-172 563.843,-172 563.843,-178 557.843,-184 551.843,-184"/>
<text text-anchor="start" x="427.843" y="-162.3" font-family="consolas" font-size="14.00">PAS_SVO_182 (1.0)</text>
</g>
<!-- MAN_172&#45;&gt;PAS_SVO_182 -->
<g id="edge8" class="edge"><title>MAN_172&#45;&gt;PAS_SVO_182</title>
<path fill="none" stroke="green" stroke-width="3" d="M352.265,-91.6842C356.607,-93.4026 360.885,-95.1801 365,-97 395.341,-110.419 428.163,-128.545 452.677,-142.851"/>
<polygon fill="green" stroke="green" stroke-width="3" points="341.271,-91.7587 344.131,-84.2873 351.602,-87.1472 348.742,-94.6186 341.271,-91.7587"/>
<polyline fill="none" stroke="green" stroke-width="3" points="350.172,-90.8829 352.04,-91.5979 "/>
<polygon fill="green" stroke="green" stroke-width="3" points="463.342,-144.486 459.284,-151.381 452.39,-147.323 456.447,-140.428 463.342,-144.486"/>
<polyline fill="none" stroke="green" stroke-width="3" points="454.418,-143.876 452.695,-142.861 "/>
</g>
<!-- PAS_SVO_182&#45;&gt;ENTITY_169 -->
<g id="edge17" class="edge"><title>PAS_SVO_182&#45;&gt;ENTITY_169</title>
<path fill="none" stroke="#2689df" stroke-dasharray="5,2" d="M574.029,-151.028C678.084,-135.582 862.072,-121.06 1004.77,-179 1041.34,-193.847 1073.03,-227.498 1092.02,-251.208"/>
<polygon fill="#2689df" stroke="#2689df" points="573.263,-147.605 563.904,-152.572 574.318,-154.525 573.263,-147.605"/>
<polygon fill="#2689df" stroke="#2689df" points="1089.29,-253.395 1098.19,-259.133 1094.81,-249.093 1089.29,-253.395"/>
</g>
<!-- PAS_SVO_182&#45;&gt;ACTION_174 -->
<g id="edge19" class="edge"><title>PAS_SVO_182&#45;&gt;ACTION_174</title>
<path fill="none" stroke="#2689df" stroke-dasharray="5,2" d="M545.961,-188.065C599.624,-210.356 681.8,-244.491 733.604,-266.01"/>
<polygon fill="#2689df" stroke="#2689df" points="546.982,-184.699 536.404,-184.095 544.297,-191.164 546.982,-184.699"/>
<polygon fill="#2689df" stroke="#2689df" points="732.332,-269.272 742.91,-269.876 735.018,-262.807 732.332,-269.272"/>
</g>
<!-- PAS_SVO_182&#45;&gt;EVENT_173 -->
<g id="edge16" class="edge"><title>PAS_SVO_182&#45;&gt;EVENT_173</title>
<path fill="none" stroke="#2689df" stroke-dasharray="5,2" d="M491.843,-194.203C491.843,-220.375 491.843,-246.547 491.843,-272.718"/>
<polygon fill="#2689df" stroke="#2689df" points="495.343,-194.193 491.843,-184.193 488.343,-194.193 495.343,-194.193"/>
<polygon fill="#2689df" stroke="#2689df" points="488.343,-272.749 491.843,-282.749 495.343,-272.749 488.343,-272.749"/>
</g>
<!-- PAS_SVO_182&#45;&gt;ENTITY_176 -->
<g id="edge18" class="edge"><title>PAS_SVO_182&#45;&gt;ENTITY_176</title>
<path fill="none" stroke="#2689df" stroke-dasharray="5,2" d="M574.468,-163.222C702.737,-160.651 943.249,-163.651 1004.77,-219 1033.48,-244.827 996.704,-275.509 1022.77,-304 1026.39,-307.954 1030.57,-311.335 1035.1,-314.225"/>
<polygon fill="#2689df" stroke="#2689df" points="574.221,-159.727 564.299,-163.443 574.373,-166.725 574.221,-159.727"/>
<polygon fill="#2689df" stroke="#2689df" points="1033.74,-317.472 1044.19,-319.202 1037.1,-311.331 1033.74,-317.472"/>
</g>
<!-- PUNCH_183 -->
<g id="node11" class="node"><title>PUNCH_183</title>
<path fill="#807501" stroke="#807501" d="M338,-196C338,-196 233,-196 233,-196 227,-196 221,-190 221,-184 221,-184 221,-172 221,-172 221,-166 227,-160 233,-160 233,-160 338,-160 338,-160 344,-160 350,-166 350,-172 350,-172 350,-184 350,-184 350,-190 344,-196 338,-196"/>
<text text-anchor="start" x="229" y="-174.3" font-family="consolas" font-size="14.00">PUNCH_183 (0.8)</text>
</g>
<!-- PUNCH_183&#45;&gt;PUNCH_177 -->
<g id="edge20" class="edge"><title>PUNCH_183&#45;&gt;PUNCH_177</title>
<path fill="none" stroke="#807501" stroke-dasharray="5,2" d="M321.844,-201.341C339.47,-211.74 361.561,-222.98 383,-229 449.672,-247.721 953.21,-225.77 1004.77,-272 1033.84,-298.069 996.444,-329.157 1022.77,-358 1026.77,-362.388 1031.47,-366.071 1036.57,-369.161"/>
<polygon fill="#807501" stroke="#807501" points="323.425,-198.207 313.06,-196.012 319.794,-204.191 323.425,-198.207"/>
<polygon fill="#807501" stroke="#807501" points="1035.01,-372.294 1045.5,-373.821 1038.25,-366.089 1035.01,-372.294"/>
</g>
<!-- PUNCH_183&#45;&gt;ACTION_174 -->
<g id="edge21" class="edge"><title>PUNCH_183&#45;&gt;ACTION_174</title>
<path fill="none" stroke="#807501" stroke-dasharray="5,2" d="M312.398,-203.19C330.596,-219.244 356.363,-238.869 383,-249 410.726,-259.545 578.706,-272.475 687.605,-279.923"/>
<polygon fill="#807501" stroke="#807501" points="314.352,-200.238 304.594,-196.112 309.65,-205.423 314.352,-200.238"/>
<polygon fill="#807501" stroke="#807501" points="687.411,-283.418 697.625,-280.604 687.886,-276.434 687.411,-283.418"/>
</g>
<!-- PUNCH_183&#45;&gt;PAS_SVO_182 -->
<g id="edge9" class="edge"><title>PUNCH_183&#45;&gt;PAS_SVO_182</title>
<path fill="none" stroke="green" stroke-width="3" d="M360.279,-173.667C376.26,-172.729 393.246,-171.731 409.499,-170.777"/>
<polygon fill="green" stroke="green" stroke-width="3" points="350.27,-178.262 349.801,-170.276 357.787,-169.807 358.256,-177.793 350.27,-178.262"/>
<polyline fill="none" stroke="green" stroke-width="3" points="358.021,-173.8 360.018,-173.683 "/>
<polygon fill="green" stroke="green" stroke-width="3" points="419.273,-166.196 419.742,-174.182 411.756,-174.651 411.287,-166.665 419.273,-166.196"/>
<polyline fill="none" stroke="green" stroke-width="3" points="411.522,-170.658 409.525,-170.775 "/>
</g>
<!-- WOMAN2_187 -->
<g id="node12" class="node"><title>WOMAN2_187</title>
<path fill="#aa3133" stroke="#aa3133" d="M157,-142C157,-142 44,-142 44,-142 38,-142 32,-136 32,-130 32,-130 32,-118 32,-118 32,-112 38,-106 44,-106 44,-106 157,-106 157,-106 163,-106 169,-112 169,-118 169,-118 169,-130 169,-130 169,-136 163,-142 157,-142"/>
<text text-anchor="start" x="40" y="-120.3" font-family="consolas" font-size="14.00">WOMAN2_187 (0.4)</text>
</g>
<!-- WOMAN2_187&#45;&gt;WOMAN_184 -->
<g id="edge22" class="edge"><title>WOMAN2_187&#45;&gt;WOMAN_184</title>
<path fill="none" stroke="#aa3133" stroke-dasharray="5,2" d="M167.028,-148.874C167.707,-149.563 168.365,-150.272 169,-151 213.587,-202.08 176.624,-237.892 206,-299 230.937,-350.875 226.943,-402 284.5,-402 284.5,-402 284.5,-402 635.685,-402 886.91,-402 950.065,-426.808 1200.85,-412 1250.84,-409.049 1306.67,-402.485 1350.56,-396.569"/>
<polygon fill="#aa3133" stroke="#aa3133" points="168.973,-145.936 159.065,-142.183 164.47,-151.296 168.973,-145.936"/>
<polygon fill="#aa3133" stroke="#aa3133" points="1351.15,-400.02 1360.59,-395.2 1350.21,-393.085 1351.15,-400.02"/>
</g>
<!-- WOMAN2_187&#45;&gt;ENTITY_176 -->
<g id="edge23" class="edge"><title>WOMAN2_187&#45;&gt;ENTITY_176</title>
<path fill="none" stroke="#aa3133" stroke-dasharray="5,2" d="M164.966,-147.662C166.36,-148.729 167.708,-149.841 169,-151 250.334,-223.948 175.245,-368 284.5,-368 284.5,-368 284.5,-368 783.727,-368 881.993,-368 907.725,-378.447 1004.77,-363 1007.51,-362.563 1029.39,-355.999 1052.57,-348.928"/>
<polygon fill="#aa3133" stroke="#aa3133" points="166.802,-144.679 156.544,-142.029 162.911,-150.498 166.802,-144.679"/>
<polygon fill="#aa3133" stroke="#aa3133" points="1053.64,-352.262 1062.18,-345.991 1051.59,-345.567 1053.64,-352.262"/>
</g>
<!-- WOMAN2_187&#45;&gt;PAS_SVO_182 -->
<g id="edge10" class="edge"><title>WOMAN2_187&#45;&gt;PAS_SVO_182</title>
<path fill="none" stroke="green" stroke-width="3" d="M124.667,-98.5626C144.183,-79.1574 173.981,-53.9562 206,-43 272.861,-20.1215 299.559,-16.3304 365,-43 412.636,-62.4136 452.05,-109.5 473.449,-139.459"/>
<polygon fill="green" stroke="green" stroke-width="3" points="120.318,-108.733 114.598,-103.141 120.19,-97.4202 125.911,-103.013 120.318,-108.733"/>
<polyline fill="none" stroke="green" stroke-width="3" points="123.051,-100.216 124.449,-98.7863 "/>
<polygon fill="green" stroke="green" stroke-width="3" points="482.532,-145.5 475.968,-150.073 471.395,-143.509 477.96,-138.936 482.532,-145.5"/>
<polyline fill="none" stroke="green" stroke-width="3" points="474.677,-141.222 473.534,-139.581 "/>
</g>
<!-- ADJUNCT_N_190 -->
<g id="node13" class="node"><title>ADJUNCT_N_190</title>
<path fill="#10436d" stroke="#10436d" d="M353,-142C353,-142 218,-142 218,-142 212,-142 206,-136 206,-130 206,-130 206,-118 206,-118 206,-112 212,-106 218,-106 218,-106 353,-106 353,-106 359,-106 365,-112 365,-118 365,-118 365,-130 365,-130 365,-136 359,-142 353,-142"/>
<text text-anchor="start" x="214" y="-120.3" font-family="consolas" font-size="14.00">ADJUNCT_N_190 (1.0)</text>
</g>
<!-- WOMAN2_187&#45;&gt;ADJUNCT_N_190 -->
<g id="edge12" class="edge"><title>WOMAN2_187&#45;&gt;ADJUNCT_N_190</title>
<path fill="none" stroke="green" stroke-width="3" d="M179.292,-124C184.622,-124 190.015,-124 195.397,-124"/>
<polygon fill="green" stroke="green" stroke-width="3" points="169.122,-128 169.123,-120 177.123,-120 177.122,-128 169.122,-128"/>
<polyline fill="none" stroke="green" stroke-width="3" points="177.123,-124 179.123,-124 "/>
<polygon fill="green" stroke="green" stroke-width="3" points="205.714,-120 205.714,-128 197.714,-128 197.714,-120 205.714,-120"/>
<polyline fill="none" stroke="green" stroke-width="3" points="197.714,-124 195.714,-124 "/>
</g>
<!-- ADJUNCT_N_190&#45;&gt;YOUNG_188 -->
<g id="edge24" class="edge"><title>ADJUNCT_N_190&#45;&gt;YOUNG_188</title>
<path fill="none" stroke="#10436d" stroke-dasharray="5,2" d="M369.522,-103.824C406.437,-96.5046 450.573,-90 490.843,-90 490.843,-90 490.843,-90 1112.81,-90 1238.31,-90 1247.4,-176.683 1327.85,-273 1338.07,-285.227 1333.46,-293.983 1345.85,-304 1350.53,-307.777 1355.74,-311.033 1361.22,-313.837"/>
<polygon fill="#10436d" stroke="#10436d" points="368.41,-100.478 359.31,-105.905 369.808,-107.337 368.41,-100.478"/>
<polygon fill="#10436d" stroke="#10436d" points="1360.09,-317.169 1370.64,-318.143 1363,-310.802 1360.09,-317.169"/>
</g>
<!-- ADJUNCT_N_190&#45;&gt;ENTITY_176 -->
<g id="edge25" class="edge"><title>ADJUNCT_N_190&#45;&gt;ENTITY_176</title>
<path fill="none" stroke="#10436d" stroke-dasharray="5,2" d="M360.986,-147.665C362.371,-148.729 363.712,-149.84 365,-151 386.128,-170.029 368.48,-193.022 392,-209 448.417,-247.325 951.2,-202.787 1004.77,-245 1026.3,-261.968 1003.4,-284.6 1022.77,-304 1026.72,-307.96 1031.24,-311.341 1036.1,-314.229"/>
<polygon fill="#10436d" stroke="#10436d" points="362.879,-144.721 352.619,-142.076 358.991,-150.541 362.879,-144.721"/>
<polygon fill="#10436d" stroke="#10436d" points="1034.66,-317.426 1045.15,-318.911 1037.87,-311.208 1034.66,-317.426"/>
</g>
<!-- ADJUNCT_N_190&#45;&gt;PAS_SVO_182 -->
<g id="edge11" class="edge"><title>ADJUNCT_N_190&#45;&gt;PAS_SVO_182</title>
<path fill="none" stroke="green" stroke-width="3" d="M375.359,-142.264C386.779,-144.611 398.425,-147.005 409.714,-149.325"/>
<polygon fill="green" stroke="green" stroke-width="3" points="364.407,-144.096 366.017,-136.26 373.853,-137.871 372.243,-145.707 364.407,-144.096"/>
<polyline fill="none" stroke="green" stroke-width="3" points="373.048,-141.789 375.007,-142.192 "/>
<polygon fill="green" stroke="green" stroke-width="3" points="420.332,-147.424 418.721,-155.26 410.885,-153.649 412.496,-145.813 420.332,-147.424"/>
<polyline fill="none" stroke="green" stroke-width="3" points="411.69,-149.731 409.731,-149.329 "/>
</g>
<!-- YOUNG_191 -->
<g id="node14" class="node"><title>YOUNG_191</title>
<path fill="#33dc89" stroke="#33dc89" d="M153,-196C153,-196 48,-196 48,-196 42,-196 36,-190 36,-184 36,-184 36,-172 36,-172 36,-166 42,-160 48,-160 48,-160 153,-160 153,-160 159,-160 165,-166 165,-172 165,-172 165,-184 165,-184 165,-190 159,-196 153,-196"/>
<text text-anchor="start" x="44" y="-174.3" font-family="consolas" font-size="14.00">YOUNG_191 (0.8)</text>
</g>
<!-- YOUNG_191&#45;&gt;YOUNG_188 -->
<g id="edge26" class="edge"><title>YOUNG_191&#45;&gt;YOUNG_188</title>
<path fill="none" stroke="#33dc89" stroke-dasharray="5,2" d="M103.206,-206.295C107.799,-255.479 124.725,-356.325 187,-407 221.007,-434.672 240.657,-422 284.5,-422 284.5,-422 284.5,-422 1112.81,-422 1209.79,-422 1247.6,-439.449 1327.85,-385 1339.79,-376.903 1334.36,-366.716 1345.85,-358 1350.84,-354.22 1356.37,-350.957 1362.15,-348.143"/>
<polygon fill="#33dc89" stroke="#33dc89" points="106.672,-205.744 102.361,-196.066 99.6961,-206.32 106.672,-205.744"/>
<polygon fill="#33dc89" stroke="#33dc89" points="1363.64,-351.31 1371.38,-344.079 1360.82,-344.903 1363.64,-351.31"/>
</g>
<!-- YOUNG_191&#45;&gt;ADJUNCT_N_190 -->
<g id="edge13" class="edge"><title>YOUNG_191&#45;&gt;ADJUNCT_N_190</title>
<path fill="none" stroke="green" stroke-width="3" d="M172.455,-157.063C185.978,-153.072 200.133,-148.895 213.653,-144.906"/>
<polygon fill="green" stroke="green" stroke-width="3" points="163.823,-163.78 161.559,-156.107 169.232,-153.843 171.496,-161.516 163.823,-163.78"/>
<polyline fill="none" stroke="green" stroke-width="3" points="170.364,-157.68 172.282,-157.113 "/>
<polygon fill="green" stroke="green" stroke-width="3" points="222.235,-138.203 224.499,-145.876 216.826,-148.14 214.562,-140.467 222.235,-138.203"/>
<polyline fill="none" stroke="green" stroke-width="3" points="215.694,-144.303 213.776,-144.87 "/>
</g>
</g>
</svg>
