<?xml version="1.0" encoding="UTF-8" standalone="no"?>
<!DOCTYPE svg PUBLIC "-//W3C//DTD SVG 1.1//EN"
 "http://www.w3.org/Graphics/SVG/1.1/DTD/svg11.dtd">
<!-- Generated by graphviz version 2.38.0 (20140413.2041)
 -->
<!-- Title: LinguisticWM_concise Pages: 1 -->
<svg width="1678pt" height="519pt"
 viewBox="0.00 0.00 1677.54 519.00" xmlns="http://www.w3.org/2000/svg" xmlns:xlink="http://www.w3.org/1999/xlink">
<g id="graph0" class="graph" transform="scale(1 1) rotate(0) translate(4 515)">
<title>LinguisticWM_concise</title>
<polygon fill="white" stroke="none" points="-4,4 -4,-515 1673.54,-515 1673.54,4 -4,4"/>
<g id="clust1" class="cluster"><title>cluster_linguisticWM</title>
<path fill="none" stroke="black" stroke-width="2" d="M20,-8C20,-8 1649.54,-8 1649.54,-8 1655.54,-8 1661.54,-14 1661.54,-20 1661.54,-20 1661.54,-491 1661.54,-491 1661.54,-497 1655.54,-503 1649.54,-503 1649.54,-503 20,-503 20,-503 14,-503 8,-497 8,-491 8,-491 8,-20 8,-20 8,-14 14,-8 20,-8"/>
</g>
<g id="clust2" class="cluster"><title>cluster_semWM</title>
<path fill="none" stroke="black" stroke-width="2" d="M555,-16C555,-16 1641.54,-16 1641.54,-16 1647.54,-16 1653.54,-22 1653.54,-28 1653.54,-28 1653.54,-203 1653.54,-203 1653.54,-209 1647.54,-215 1641.54,-215 1641.54,-215 555,-215 555,-215 549,-215 543,-209 543,-203 543,-203 543,-28 543,-28 543,-22 549,-16 555,-16"/>
<text text-anchor="start" x="551" y="-199.8" font-family="consolas" font-size="14.00">Semantic WM (t:211.0)</text>
</g>
<g id="clust3" class="cluster"><title>cluster_SemRep</title>
<path fill="none" stroke="white" stroke-width="2" d="M563,-24C563,-24 1633.54,-24 1633.54,-24 1639.54,-24 1645.54,-30 1645.54,-36 1645.54,-36 1645.54,-172 1645.54,-172 1645.54,-178 1639.54,-184 1633.54,-184 1633.54,-184 563,-184 563,-184 557,-184 551,-178 551,-172 551,-172 551,-36 551,-36 551,-30 557,-24 563,-24"/>
</g>
<g id="clust4" class="cluster"><title>cluster_gramWM</title>
<path fill="none" stroke="black" stroke-width="2" d="M28,-223C28,-223 703.843,-223 703.843,-223 709.843,-223 715.843,-229 715.843,-235 715.843,-235 715.843,-450 715.843,-450 715.843,-456 709.843,-462 703.843,-462 703.843,-462 28,-462 28,-462 22,-462 16,-456 16,-450 16,-450 16,-235 16,-235 16,-229 22,-223 28,-223"/>
<text text-anchor="start" x="24" y="-446.8" font-family="consolas" font-size="14.00">Grammatical WM (t:211.0)</text>
</g>
<g id="clust5" class="cluster"><title>cluster_C2_cluster</title>
<path fill="none" stroke="white" stroke-width="2" d="M36,-231C36,-231 695.843,-231 695.843,-231 701.843,-231 707.843,-237 707.843,-243 707.843,-243 707.843,-419 707.843,-419 707.843,-425 701.843,-431 695.843,-431 695.843,-431 36,-431 36,-431 30,-431 24,-425 24,-419 24,-419 24,-243 24,-243 24,-237 30,-231 36,-231"/>
</g>
<!-- MAN_170 -->
<g id="node1" class="node"><title>MAN_170</title>
<ellipse fill="lightgrey" stroke="lightgrey" cx="1553.7" cy="-104" rx="74.187" ry="18"/>
<text text-anchor="start" x="1504.7" y="-100.3" font-family="consolas" font-size="14.00">MAN_170 (1.0)</text>
</g>
<!-- PUNCH_177 -->
<g id="node2" class="node"><title>PUNCH_177</title>
<ellipse fill="lightgrey" stroke="lightgrey" cx="1262.81" cy="-50" rx="83.6854" ry="18"/>
<text text-anchor="start" x="1206.31" y="-46.3" font-family="consolas" font-size="14.00">PUNCH_177 (1.0)</text>
</g>
<!-- ENTITY_169 -->
<g id="node3" class="node"><title>ENTITY_169</title>
<ellipse fill="lightgrey" stroke="lightgrey" cx="1262.81" cy="-104" rx="89.0842" ry="18"/>
<text text-anchor="start" x="1202.31" y="-100.3" font-family="consolas" font-size="14.00">ENTITY_169 (1.0)</text>
</g>
<!-- ENTITY_169&#45;&gt;MAN_170 -->
<g id="edge1" class="edge"><title>ENTITY_169&#45;&gt;MAN_170</title>
<path fill="none" stroke="black" stroke-width="2" d="M1352.06,-104C1389.37,-104 1432.6,-104 1469.37,-104"/>
<polygon fill="black" stroke="black" stroke-width="2" points="1469.55,-107.5 1479.55,-104 1469.55,-100.5 1469.55,-107.5"/>
<text text-anchor="start" x="1369.85" y="-107.4" font-family="consolas" font-size="12.00">IS_171 (1.0)</text>
</g>
<!-- WOMAN_184 -->
<g id="node4" class="node"><title>WOMAN_184</title>
<ellipse fill="lightgrey" stroke="lightgrey" cx="1553.7" cy="-158" rx="83.6854" ry="18"/>
<text text-anchor="start" x="1497.2" y="-154.3" font-family="consolas" font-size="14.00">WOMAN_184 (1.0)</text>
</g>
<!-- ACTION_174 -->
<g id="node5" class="node"><title>ACTION_174</title>
<ellipse fill="lightgrey" stroke="lightgrey" cx="933.727" cy="-121" rx="89.0842" ry="18"/>
<text text-anchor="start" x="873.227" y="-117.3" font-family="consolas" font-size="14.00">ACTION_174 (1.0)</text>
</g>
<!-- ACTION_174&#45;&gt;PUNCH_177 -->
<g id="edge4" class="edge"><title>ACTION_174&#45;&gt;PUNCH_177</title>
<path fill="none" stroke="black" stroke-width="2" d="M986.876,-106.498C1003.99,-101.935 1023.14,-97.0383 1040.77,-93 1089.28,-81.89 1144.2,-71.1969 1187.16,-63.2531"/>
<polygon fill="black" stroke="black" stroke-width="2" points="1188.05,-66.6481 1197.25,-61.3968 1186.79,-59.7635 1188.05,-66.6481"/>
<text text-anchor="start" x="1057.27" y="-96.4" font-family="consolas" font-size="12.00">IS_178 (1.0)</text>
</g>
<!-- ACTION_174&#45;&gt;ENTITY_169 -->
<g id="edge2" class="edge"><title>ACTION_174&#45;&gt;ENTITY_169</title>
<path fill="none" stroke="black" stroke-width="2" d="M1020.24,-116.556C1065.03,-114.228 1120.02,-111.37 1166.21,-108.969"/>
<polygon fill="black" stroke="black" stroke-width="2" points="1166.43,-112.462 1176.23,-108.448 1166.06,-105.472 1166.43,-112.462"/>
<text text-anchor="start" x="1040.77" y="-119.4" font-family="consolas" font-size="12.00">PATIENT_180 (1.0)</text>
</g>
<!-- ENTITY_176 -->
<g id="node7" class="node"><title>ENTITY_176</title>
<ellipse fill="lightgrey" stroke="lightgrey" cx="1262.81" cy="-158" rx="89.0842" ry="18"/>
<text text-anchor="start" x="1202.31" y="-154.3" font-family="consolas" font-size="14.00">ENTITY_176 (1.0)</text>
</g>
<!-- ACTION_174&#45;&gt;ENTITY_176 -->
<g id="edge3" class="edge"><title>ACTION_174&#45;&gt;ENTITY_176</title>
<path fill="none" stroke="black" stroke-width="2" d="M1011.76,-129.718C1021.52,-130.823 1031.38,-131.938 1040.77,-133 1084.9,-137.993 1133.99,-143.545 1174.68,-148.146"/>
<polygon fill="black" stroke="black" stroke-width="2" points="1174.5,-151.649 1184.83,-149.295 1175.29,-144.693 1174.5,-151.649"/>
<text text-anchor="start" x="1047.27" y="-149.4" font-family="consolas" font-size="12.00">AGENT_179 (1.0)</text>
</g>
<!-- EVENT_173 -->
<g id="node6" class="node"><title>EVENT_173</title>
<ellipse fill="lightgrey" stroke="lightgrey" cx="642.843" cy="-158" rx="83.6854" ry="18"/>
<text text-anchor="start" x="586.343" y="-154.3" font-family="consolas" font-size="14.00">EVENT_173 (1.0)</text>
</g>
<!-- EVENT_173&#45;&gt;ACTION_174 -->
<g id="edge5" class="edge"><title>EVENT_173&#45;&gt;ACTION_174</title>
<path fill="none" stroke="black" stroke-width="2" d="M715.252,-148.854C755.47,-143.703 805.938,-137.239 848.131,-131.835"/>
<polygon fill="black" stroke="black" stroke-width="2" points="848.635,-135.299 858.109,-130.557 847.746,-128.356 848.635,-135.299"/>
<text text-anchor="start" x="744.685" y="-148.4" font-family="consolas" font-size="12.00">IS_175 (1.0)</text>
</g>
<!-- ENTITY_176&#45;&gt;WOMAN_184 -->
<g id="edge6" class="edge"><title>ENTITY_176&#45;&gt;WOMAN_184</title>
<path fill="none" stroke="black" stroke-width="2" d="M1352.06,-158C1386.04,-158 1424.93,-158 1459.37,-158"/>
<polygon fill="black" stroke="black" stroke-width="2" points="1459.44,-161.5 1469.44,-158 1459.44,-154.5 1459.44,-161.5"/>
<text text-anchor="start" x="1369.85" y="-161.4" font-family="consolas" font-size="12.00">IS_185 (1.0)</text>
</g>
<!-- MAN_172 -->
<g id="node8" class="node"><title>MAN_172</title>
<path fill="#c383dd" stroke="#c383dd" d="M315.5,-369C315.5,-369 225.5,-369 225.5,-369 219.5,-369 213.5,-363 213.5,-357 213.5,-357 213.5,-345 213.5,-345 213.5,-339 219.5,-333 225.5,-333 225.5,-333 315.5,-333 315.5,-333 321.5,-333 327.5,-339 327.5,-345 327.5,-345 327.5,-357 327.5,-357 327.5,-363 321.5,-369 315.5,-369"/>
<text text-anchor="start" x="221.5" y="-347.3" font-family="consolas" font-size="14.00">MAN_172 (0.9)</text>
</g>
<!-- MAN_172&#45;&gt;MAN_170 -->
<g id="edge17" class="edge"><title>MAN_172&#45;&gt;MAN_170</title>
<path fill="none" stroke="#c383dd" stroke-dasharray="5,2" d="M323.712,-373.17C327.533,-374.802 331.327,-376.425 335,-378 381.501,-397.94 392.404,-414 443,-414 443,-414 443,-414 1263.81,-414 1398.97,-414 1383.82,-291.788 1451.85,-175 1462.49,-156.743 1454.38,-145.383 1469.85,-131 1474.77,-126.434 1480.46,-122.639 1486.53,-119.486"/>
<polygon fill="#c383dd" stroke="#c383dd" points="324.783,-369.822 314.212,-369.119 322.037,-376.261 324.783,-369.822"/>
<polygon fill="#c383dd" stroke="#c383dd" points="1487.99,-122.664 1495.62,-115.31 1485.07,-116.303 1487.99,-122.664"/>
</g>
<!-- MAN_172&#45;&gt;ENTITY_169 -->
<g id="edge18" class="edge"><title>MAN_172&#45;&gt;ENTITY_169</title>
<path fill="none" stroke="#c383dd" stroke-dasharray="5,2" d="M327.173,-372.302C360.307,-383.117 403.468,-394 443,-394 443,-394 443,-394 786.685,-394 893.848,-394 924.486,-387.711 1022.77,-345 1089.16,-316.15 1117.8,-312.625 1155.77,-251 1184.06,-205.086 1138.57,-171.861 1173.77,-131 1177.2,-127.014 1181.21,-123.606 1185.58,-120.695"/>
<polygon fill="#c383dd" stroke="#c383dd" points="328.261,-368.975 317.667,-369.111 326.034,-375.611 328.261,-368.975"/>
<polygon fill="#c383dd" stroke="#c383dd" points="1187.43,-123.67 1194.39,-115.685 1183.97,-117.585 1187.43,-123.67"/>
</g>
<!-- SVO_181 -->
<g id="node9" class="node"><title>SVO_181</title>
<path fill="#f65a5e" stroke="#f65a5e" d="M687.843,-312C687.843,-312 597.843,-312 597.843,-312 591.843,-312 585.843,-306 585.843,-300 585.843,-300 585.843,-288 585.843,-288 585.843,-282 591.843,-276 597.843,-276 597.843,-276 687.843,-276 687.843,-276 693.843,-276 699.843,-282 699.843,-288 699.843,-288 699.843,-300 699.843,-300 699.843,-306 693.843,-312 687.843,-312"/>
<text text-anchor="start" x="593.843" y="-290.3" font-family="consolas" font-size="14.00">SVO_181 (0.1)</text>
</g>
<!-- MAN_172&#45;&gt;SVO_181 -->
<g id="edge7" class="edge"><title>MAN_172&#45;&gt;SVO_181</title>
<path fill="none" stroke="green" stroke-width="3" d="M337.57,-344.992C391.044,-339.646 468.18,-330.839 535,-319 548.229,-316.656 562.277,-313.707 575.69,-310.663"/>
<polygon fill="green" stroke="green" stroke-width="3" points="327.928,-349.963 327.142,-342.002 335.104,-341.216 335.89,-349.177 327.928,-349.963"/>
<polyline fill="none" stroke="green" stroke-width="3" points="335.497,-345.197 337.487,-345 "/>
<polygon fill="green" stroke="green" stroke-width="3" points="584.897,-304.428 586.7,-312.222 578.906,-314.025 577.103,-306.23 584.897,-304.428"/>
<polyline fill="none" stroke="green" stroke-width="3" points="578.004,-310.128 576.056,-310.578 "/>
</g>
<!-- PAS_SVO_182 -->
<g id="node10" class="node"><title>PAS_SVO_182</title>
<path fill="#2689df" stroke="#2689df" d="M504,-275C504,-275 384,-275 384,-275 378,-275 372,-269 372,-263 372,-263 372,-251 372,-251 372,-245 378,-239 384,-239 384,-239 504,-239 504,-239 510,-239 516,-245 516,-251 516,-251 516,-263 516,-263 516,-269 510,-275 504,-275"/>
<text text-anchor="start" x="380" y="-253.3" font-family="consolas" font-size="14.00">PAS_SVO_182 (0.3)</text>
</g>
<!-- MAN_172&#45;&gt;PAS_SVO_182 -->
<g id="edge8" class="edge"><title>MAN_172&#45;&gt;PAS_SVO_182</title>
<path fill="none" stroke="green" stroke-width="3" d="M313.464,-327.999C340.065,-313.419 374.351,-294.627 400.966,-280.039"/>
<polygon fill="green" stroke="green" stroke-width="3" points="306.49,-336.384 302.644,-329.368 309.66,-325.523 313.505,-332.538 306.49,-336.384"/>
<polyline fill="none" stroke="green" stroke-width="3" points="311.582,-329.031 313.336,-328.069 "/>
<polygon fill="green" stroke="green" stroke-width="3" points="408.112,-271.561 411.957,-278.576 404.942,-282.421 401.097,-275.406 408.112,-271.561"/>
<polyline fill="none" stroke="green" stroke-width="3" points="403.019,-278.914 401.265,-279.875 "/>
</g>
<!-- SVO_181&#45;&gt;ENTITY_169 -->
<g id="edge22" class="edge"><title>SVO_181&#45;&gt;ENTITY_169</title>
<path fill="none" stroke="#f65a5e" stroke-dasharray="5,2" d="M710.149,-293.153C815.168,-288.563 1021.58,-265.957 1155.77,-163 1168.72,-153.067 1161.06,-141.235 1173.77,-131 1178.67,-127.052 1184.15,-123.679 1189.91,-120.798"/>
<polygon fill="#f65a5e" stroke="#f65a5e" points="709.855,-289.662 700.001,-293.554 710.132,-296.657 709.855,-289.662"/>
<polygon fill="#f65a5e" stroke="#f65a5e" points="1191.45,-123.943 1199.15,-116.665 1188.59,-117.553 1191.45,-123.943"/>
</g>
<!-- SVO_181&#45;&gt;ACTION_174 -->
<g id="edge19" class="edge"><title>SVO_181&#45;&gt;ACTION_174</title>
<path fill="none" stroke="#f65a5e" stroke-dasharray="5,2" d="M681.039,-270.402C700.006,-258.461 723.488,-243.817 744.685,-231 796.071,-199.928 856.048,-165.086 894.194,-143.103"/>
<polygon fill="#f65a5e" stroke="#f65a5e" points="678.985,-267.559 672.394,-275.854 682.719,-273.48 678.985,-267.559"/>
<polygon fill="#f65a5e" stroke="#f65a5e" points="896.012,-146.095 902.932,-138.072 892.519,-140.028 896.012,-146.095"/>
</g>
<!-- SVO_181&#45;&gt;EVENT_173 -->
<g id="edge20" class="edge"><title>SVO_181&#45;&gt;EVENT_173</title>
<path fill="none" stroke="#f65a5e" stroke-dasharray="5,2" d="M642.843,-265.445C642.843,-239.019 642.843,-212.594 642.843,-186.169"/>
<polygon fill="#f65a5e" stroke="#f65a5e" points="639.343,-265.572 642.843,-275.572 646.343,-265.572 639.343,-265.572"/>
<polygon fill="#f65a5e" stroke="#f65a5e" points="646.343,-186.062 642.843,-176.063 639.343,-186.063 646.343,-186.062"/>
</g>
<!-- SVO_181&#45;&gt;ENTITY_176 -->
<g id="edge21" class="edge"><title>SVO_181&#45;&gt;ENTITY_176</title>
<path fill="none" stroke="#f65a5e" stroke-dasharray="5,2" d="M710.365,-305.607C831.085,-325.316 1080.7,-359.446 1155.77,-319 1208.38,-290.656 1239.19,-223.534 1253.01,-185.512"/>
<polygon fill="#f65a5e" stroke="#f65a5e" points="710.581,-302.095 700.145,-303.922 709.443,-309.002 710.581,-302.095"/>
<polygon fill="#f65a5e" stroke="#f65a5e" points="1256.32,-186.66 1256.31,-176.065 1249.71,-184.349 1256.32,-186.66"/>
</g>
<!-- PAS_SVO_182&#45;&gt;ENTITY_169 -->
<g id="edge24" class="edge"><title>PAS_SVO_182&#45;&gt;ENTITY_169</title>
<path fill="none" stroke="#2689df" stroke-dasharray="5,2" d="M472.963,-281.608C491.448,-296.178 516.99,-313.259 543,-321 621.246,-344.287 645.442,-329.016 726.685,-321 923.869,-301.545 1028.9,-352.198 1155.77,-200 1176.06,-175.656 1151.84,-153.88 1173.77,-131 1177.48,-127.132 1181.72,-123.813 1186.3,-120.967"/>
<polygon fill="#2689df" stroke="#2689df" points="474.96,-278.72 464.991,-275.133 470.547,-284.154 474.96,-278.72"/>
<polygon fill="#2689df" stroke="#2689df" points="1188.31,-123.865 1195.47,-116.056 1185,-117.695 1188.31,-123.865"/>
</g>
<!-- PAS_SVO_182&#45;&gt;ACTION_174 -->
<g id="edge26" class="edge"><title>PAS_SVO_182&#45;&gt;ACTION_174</title>
<path fill="none" stroke="#2689df" stroke-dasharray="5,2" d="M457.338,-229.431C472.596,-199.09 501.707,-151.856 543,-131 592.889,-105.802 740.613,-108.954 839.174,-114.365"/>
<polygon fill="#2689df" stroke="#2689df" points="454.089,-228.109 452.873,-238.634 460.387,-231.165 454.089,-228.109"/>
<polygon fill="#2689df" stroke="#2689df" points="839.265,-117.875 849.447,-114.947 839.661,-110.887 839.265,-117.875"/>
</g>
<!-- PAS_SVO_182&#45;&gt;EVENT_173 -->
<g id="edge23" class="edge"><title>PAS_SVO_182&#45;&gt;EVENT_173</title>
<path fill="none" stroke="#2689df" stroke-dasharray="5,2" d="M490.461,-234.136C523.409,-217.565 567.635,-195.322 599.772,-179.159"/>
<polygon fill="#2689df" stroke="#2689df" points="488.465,-231.222 481.104,-238.842 491.61,-237.475 488.465,-231.222"/>
<polygon fill="#2689df" stroke="#2689df" points="601.552,-182.182 608.913,-174.562 598.406,-175.928 601.552,-182.182"/>
</g>
<!-- PAS_SVO_182&#45;&gt;ENTITY_176 -->
<g id="edge25" class="edge"><title>PAS_SVO_182&#45;&gt;ENTITY_176</title>
<path fill="none" stroke="#2689df" stroke-dasharray="5,2" d="M461.51,-283.369C477.112,-305.567 502.752,-335.752 534,-349 597.624,-375.974 1096.02,-368.717 1155.77,-334 1211.79,-301.453 1241.69,-226.51 1254.34,-185.703"/>
<polygon fill="#2689df" stroke="#2689df" points="464.349,-281.319 455.838,-275.009 458.556,-285.249 464.349,-281.319"/>
<polygon fill="#2689df" stroke="#2689df" points="1257.7,-186.693 1257.19,-176.11 1250.99,-184.7 1257.7,-186.693"/>
</g>
<!-- PAS_SVO_182&#45;&gt;SVO_181 -->
<g id="edge15" class="edge"><title>PAS_SVO_182&#45;&gt;SVO_181</title>
<path fill="none" stroke="red" stroke-width="3" d="M524.197,-271.886C541.899,-275.214 560.464,-278.704 577.481,-281.902"/>
<ellipse fill="red" stroke="red" stroke-width="3" cx="519.996" cy="-271.097" rx="4.00001" ry="4.00001"/>
<ellipse fill="red" stroke="red" stroke-width="3" cx="581.768" cy="-282.708" rx="4.00001" ry="4.00001"/>
</g>
<!-- PUNCH_183 -->
<g id="node11" class="node"><title>PUNCH_183</title>
<path fill="#807501" stroke="#807501" d="M323,-295C323,-295 218,-295 218,-295 212,-295 206,-289 206,-283 206,-283 206,-271 206,-271 206,-265 212,-259 218,-259 218,-259 323,-259 323,-259 329,-259 335,-265 335,-271 335,-271 335,-283 335,-283 335,-289 329,-295 323,-295"/>
<text text-anchor="start" x="214" y="-273.3" font-family="consolas" font-size="14.00">PUNCH_183 (0.7)</text>
</g>
<!-- PUNCH_183&#45;&gt;PUNCH_177 -->
<g id="edge27" class="edge"><title>PUNCH_183&#45;&gt;PUNCH_177</title>
<path fill="none" stroke="#807501" stroke-dasharray="5,2" d="M304.433,-300.887C345.35,-329.609 413.38,-374 443,-374 443,-374 443,-374 786.685,-374 975.636,-374 1044.62,-315.801 1155.77,-163 1178.74,-131.421 1147.44,-105.843 1173.77,-77 1177.77,-72.6123 1182.47,-68.9295 1187.57,-65.8394"/>
<polygon fill="#807501" stroke="#807501" points="306.322,-297.936 296.137,-295.018 302.279,-303.651 306.322,-297.936"/>
<polygon fill="#807501" stroke="#807501" points="1189.25,-68.9107 1196.5,-61.1787 1186.01,-62.7061 1189.25,-68.9107"/>
</g>
<!-- PUNCH_183&#45;&gt;ACTION_174 -->
<g id="edge28" class="edge"><title>PUNCH_183&#45;&gt;ACTION_174</title>
<path fill="none" stroke="#807501" stroke-dasharray="5,2" d="M299.115,-252.123C345.474,-212.229 443.664,-135.534 543,-107 651.739,-75.7653 784.574,-91.2723 863.717,-105.809"/>
<polygon fill="#807501" stroke="#807501" points="296.582,-249.688 291.336,-258.893 301.178,-254.968 296.582,-249.688"/>
<polygon fill="#807501" stroke="#807501" points="863.096,-109.253 873.571,-107.665 864.392,-102.374 863.096,-109.253"/>
</g>
<!-- PUNCH_183&#45;&gt;SVO_181 -->
<g id="edge9" class="edge"><title>PUNCH_183&#45;&gt;SVO_181</title>
<path fill="none" stroke="green" stroke-width="3" d="M345.158,-282.406C354.196,-282.988 363.308,-283.536 372,-284 441.377,-287.701 520.86,-290.468 575.499,-292.142"/>
<polygon fill="green" stroke="green" stroke-width="3" points="334.747,-285.729 335.273,-277.746 343.256,-278.272 342.73,-286.255 334.747,-285.729"/>
<polyline fill="none" stroke="green" stroke-width="3" points="342.993,-282.264 344.989,-282.395 "/>
<polygon fill="green" stroke="green" stroke-width="3" points="585.865,-288.454 585.623,-296.451 577.627,-296.208 577.869,-288.212 585.865,-288.454"/>
<polyline fill="none" stroke="green" stroke-width="3" points="577.748,-292.21 575.749,-292.15 "/>
</g>
<!-- PUNCH_183&#45;&gt;PAS_SVO_182 -->
<g id="edge10" class="edge"><title>PUNCH_183&#45;&gt;PAS_SVO_182</title>
<path fill="none" stroke="green" stroke-width="3" d="M345.525,-268.367C350.853,-267.746 356.242,-267.118 361.609,-266.492"/>
<polygon fill="green" stroke="green" stroke-width="3" points="335.824,-273.526 334.897,-265.58 342.843,-264.653 343.77,-272.599 335.824,-273.526"/>
<polyline fill="none" stroke="green" stroke-width="3" points="343.306,-268.626 345.293,-268.394 "/>
<polygon fill="green" stroke="green" stroke-width="3" points="371.415,-261.321 372.342,-269.267 364.396,-270.194 363.469,-262.248 371.415,-261.321"/>
<polyline fill="none" stroke="green" stroke-width="3" points="363.932,-266.221 361.946,-266.452 "/>
</g>
<!-- WOMAN_186 -->
<g id="node12" class="node"><title>WOMAN_186</title>
<path fill="#f25e62" stroke="#f25e62" d="M323,-423C323,-423 218,-423 218,-423 212,-423 206,-417 206,-411 206,-411 206,-399 206,-399 206,-393 212,-387 218,-387 218,-387 323,-387 323,-387 329,-387 335,-393 335,-399 335,-399 335,-411 335,-411 335,-417 329,-423 323,-423"/>
<text text-anchor="start" x="214" y="-401.3" font-family="consolas" font-size="14.00">WOMAN_186 (0.3)</text>
</g>
<!-- WOMAN_186&#45;&gt;WOMAN_184 -->
<g id="edge30" class="edge"><title>WOMAN_186&#45;&gt;WOMAN_184</title>
<path fill="none" stroke="#f25e62" stroke-dasharray="5,2" d="M320.737,-426.926C354.458,-439.971 400.584,-454 443,-454 443,-454 443,-454 1263.81,-454 1412.98,-454 1510.28,-259.102 1541.67,-185.603"/>
<polygon fill="#f25e62" stroke="#f25e62" points="321.714,-423.549 311.128,-423.107 319.128,-430.053 321.714,-423.549"/>
<polygon fill="#f25e62" stroke="#f25e62" points="1545.02,-186.646 1545.66,-176.071 1538.57,-183.943 1545.02,-186.646"/>
</g>
<!-- WOMAN_186&#45;&gt;ENTITY_176 -->
<g id="edge29" class="edge"><title>WOMAN_186&#45;&gt;ENTITY_176</title>
<path fill="none" stroke="#f25e62" stroke-dasharray="5,2" d="M345.02,-422.976C375.188,-428.899 410.58,-434 443,-434 443,-434 443,-434 934.727,-434 1039.98,-434 1076.33,-418.05 1155.77,-349 1207.62,-303.928 1239.19,-227.006 1253.22,-185.878"/>
<polygon fill="#f25e62" stroke="#f25e62" points="345.498,-419.502 335.001,-420.942 344.105,-426.362 345.498,-419.502"/>
<polygon fill="#f25e62" stroke="#f25e62" points="1256.59,-186.827 1256.4,-176.234 1249.94,-184.629 1256.59,-186.827"/>
</g>
<!-- WOMAN_186&#45;&gt;SVO_181 -->
<g id="edge11" class="edge"><title>WOMAN_186&#45;&gt;SVO_181</title>
<path fill="none" stroke="green" stroke-width="3" d="M344.945,-385.766C393.666,-372.714 458.906,-354.678 516,-337 537.515,-330.339 560.906,-322.51 581.619,-315.371"/>
<polygon fill="green" stroke="green" stroke-width="3" points="336.151,-392.255 334.086,-384.526 341.815,-382.462 343.88,-390.191 336.151,-392.255"/>
<polyline fill="none" stroke="green" stroke-width="3" points="342.848,-386.326 344.78,-385.81 "/>
<polygon fill="green" stroke="green" stroke-width="3" points="589.931,-308.259 592.55,-315.819 584.99,-318.437 582.372,-310.877 589.931,-308.259"/>
<polyline fill="none" stroke="green" stroke-width="3" points="583.681,-314.657 581.791,-315.312 "/>
</g>
<!-- WOMAN_186&#45;&gt;PAS_SVO_182 -->
<g id="edge12" class="edge"><title>WOMAN_186&#45;&gt;PAS_SVO_182</title>
<path fill="none" stroke="green" stroke-width="3" d="M330.809,-381.329C332.255,-380.262 333.656,-379.152 335,-378 346.517,-368.127 343.64,-360.938 353,-349 371.939,-324.845 396.469,-300.121 415.135,-282.395"/>
<polygon fill="green" stroke="green" stroke-width="3" points="324.286,-390.345 319.923,-383.639 326.629,-379.276 330.992,-385.982 324.286,-390.345"/>
<polyline fill="none" stroke="green" stroke-width="3" points="328.811,-382.629 330.487,-381.538 "/>
<polygon fill="green" stroke="green" stroke-width="3" points="420.004,-272.334 425.481,-278.164 419.65,-283.642 414.173,-277.811 420.004,-272.334"/>
<polyline fill="none" stroke="green" stroke-width="3" points="416.912,-280.726 415.454,-282.096 "/>
</g>
<!-- WOMAN2_187 -->
<g id="node13" class="node"><title>WOMAN2_187</title>
<path fill="#aa3133" stroke="#aa3133" d="M157,-423C157,-423 44,-423 44,-423 38,-423 32,-417 32,-411 32,-411 32,-399 32,-399 32,-393 38,-387 44,-387 44,-387 157,-387 157,-387 163,-387 169,-393 169,-399 169,-399 169,-411 169,-411 169,-417 163,-423 157,-423"/>
<text text-anchor="start" x="40" y="-401.3" font-family="consolas" font-size="14.00">WOMAN2_187 (0.3)</text>
</g>
<!-- WOMAN2_187&#45;&gt;WOMAN_184 -->
<g id="edge31" class="edge"><title>WOMAN2_187&#45;&gt;WOMAN_184</title>
<path fill="none" stroke="#aa3133" stroke-dasharray="5,2" d="M128.271,-429.758C159.635,-456.094 214.356,-494 269.5,-494 269.5,-494 269.5,-494 1263.81,-494 1360.63,-494 1391.46,-459.682 1451.85,-384 1501.58,-321.687 1532.2,-230.979 1545.28,-185.771"/>
<polygon fill="#aa3133" stroke="#aa3133" points="130.3,-426.886 120.439,-423.01 125.731,-432.189 130.3,-426.886"/>
<polygon fill="#aa3133" stroke="#aa3133" points="1548.67,-186.645 1548.02,-176.07 1541.94,-184.742 1548.67,-186.645"/>
</g>
<!-- WOMAN2_187&#45;&gt;ENTITY_176 -->
<g id="edge32" class="edge"><title>WOMAN2_187&#45;&gt;ENTITY_176</title>
<path fill="none" stroke="#aa3133" stroke-dasharray="5,2" d="M136.246,-428.595C169.09,-448.577 220.504,-474 269.5,-474 269.5,-474 269.5,-474 786.685,-474 954.917,-474 1032.39,-504.369 1155.77,-390 1216.91,-333.32 1245.48,-234.537 1256.31,-186.229"/>
<polygon fill="#aa3133" stroke="#aa3133" points="137.828,-425.457 127.492,-423.129 134.121,-431.394 137.828,-425.457"/>
<polygon fill="#aa3133" stroke="#aa3133" points="1259.79,-186.687 1258.47,-176.174 1252.95,-185.216 1259.79,-186.687"/>
</g>
<!-- WOMAN2_187&#45;&gt;SVO_181 -->
<g id="edge13" class="edge"><title>WOMAN2_187&#45;&gt;SVO_181</title>
<path fill="none" stroke="green" stroke-width="3" d="M125.591,-379.465C145.234,-360.487 174.755,-335.905 206,-324 239.549,-311.217 461.885,-300.932 575.4,-296.443"/>
<polygon fill="green" stroke="green" stroke-width="3" points="121.126,-389.524 115.493,-383.843 121.175,-378.211 126.807,-383.892 121.126,-389.524"/>
<polyline fill="none" stroke="green" stroke-width="3" points="123.991,-381.051 125.411,-379.643 "/>
<polygon fill="green" stroke="green" stroke-width="3" points="585.548,-292.042 585.861,-300.036 577.867,-300.349 577.554,-292.355 585.548,-292.042"/>
<polyline fill="none" stroke="green" stroke-width="3" points="577.711,-296.352 575.712,-296.431 "/>
</g>
<!-- WOMAN2_187&#45;&gt;PAS_SVO_182 -->
<g id="edge14" class="edge"><title>WOMAN2_187&#45;&gt;PAS_SVO_182</title>
<path fill="none" stroke="green" stroke-width="3" d="M110.863,-377.168C124.945,-340.323 155.451,-276.885 206,-250 256.236,-223.282 321.319,-227.457 370.569,-236.954"/>
<polygon fill="green" stroke="green" stroke-width="3" points="111.078,-388.182 103.569,-385.423 106.328,-377.914 113.837,-380.673 111.078,-388.182"/>
<polyline fill="none" stroke="green" stroke-width="3" points="110.082,-379.293 110.772,-377.416 "/>
<polygon fill="green" stroke="green" stroke-width="3" points="381.313,-235.065 379.712,-242.904 371.874,-241.303 373.474,-233.465 381.313,-235.065"/>
<polyline fill="none" stroke="green" stroke-width="3" points="372.674,-237.384 370.715,-236.984 "/>
</g>
<!-- WOMAN2_187&#45;&gt;WOMAN_186 -->
<g id="edge16" class="edge"><title>WOMAN2_187&#45;&gt;WOMAN_186</title>
<path fill="none" stroke="red" stroke-width="3" d="M177.577,-405C184.198,-405 190.886,-405 197.473,-405"/>
<ellipse fill="red" stroke="red" stroke-width="3" cx="173.348" cy="-405" rx="4" ry="4"/>
<ellipse fill="red" stroke="red" stroke-width="3" cx="201.751" cy="-405" rx="4" ry="4"/>
</g>
</g>
</svg>
