<?xml version="1.0" encoding="UTF-8" standalone="no"?>
<!DOCTYPE svg PUBLIC "-//W3C//DTD SVG 1.1//EN"
 "http://www.w3.org/Graphics/SVG/1.1/DTD/svg11.dtd">
<!-- Generated by graphviz version 2.38.0 (20140413.2041)
 -->
<!-- Title: LinguisticWM_concise Pages: 1 -->
<svg width="1901pt" height="611pt"
 viewBox="0.00 0.00 1900.54 611.00" xmlns="http://www.w3.org/2000/svg" xmlns:xlink="http://www.w3.org/1999/xlink">
<g id="graph0" class="graph" transform="scale(1 1) rotate(0) translate(4 607)">
<title>LinguisticWM_concise</title>
<polygon fill="white" stroke="none" points="-4,4 -4,-607 1896.54,-607 1896.54,4 -4,4"/>
<g id="clust1" class="cluster"><title>cluster_linguisticWM</title>
<path fill="none" stroke="black" stroke-width="2" d="M20,-8C20,-8 1872.54,-8 1872.54,-8 1878.54,-8 1884.54,-14 1884.54,-20 1884.54,-20 1884.54,-583 1884.54,-583 1884.54,-589 1878.54,-595 1872.54,-595 1872.54,-595 20,-595 20,-595 14,-595 8,-589 8,-583 8,-583 8,-20 8,-20 8,-14 14,-8 20,-8"/>
</g>
<g id="clust2" class="cluster"><title>cluster_semWM</title>
<path fill="none" stroke="black" stroke-width="2" d="M751,-80C751,-80 1864.54,-80 1864.54,-80 1870.54,-80 1876.54,-86 1876.54,-92 1876.54,-92 1876.54,-267 1876.54,-267 1876.54,-273 1870.54,-279 1864.54,-279 1864.54,-279 751,-279 751,-279 745,-279 739,-273 739,-267 739,-267 739,-92 739,-92 739,-86 745,-80 751,-80"/>
<text text-anchor="start" x="747" y="-263.8" font-family="consolas" font-size="14.00">Semantic WM (t:311.0)</text>
</g>
<g id="clust3" class="cluster"><title>cluster_SemRep</title>
<path fill="none" stroke="white" stroke-width="2" d="M759,-88C759,-88 1856.54,-88 1856.54,-88 1862.54,-88 1868.54,-94 1868.54,-100 1868.54,-100 1868.54,-236 1868.54,-236 1868.54,-242 1862.54,-248 1856.54,-248 1856.54,-248 759,-248 759,-248 753,-248 747,-242 747,-236 747,-236 747,-100 747,-100 747,-94 753,-88 759,-88"/>
</g>
<g id="clust4" class="cluster"><title>cluster_gramWM</title>
<path fill="none" stroke="black" stroke-width="2" d="M28,-287C28,-287 899.843,-287 899.843,-287 905.843,-287 911.843,-293 911.843,-299 911.843,-299 911.843,-554 911.843,-554 911.843,-560 905.843,-566 899.843,-566 899.843,-566 28,-566 28,-566 22,-566 16,-560 16,-554 16,-554 16,-299 16,-299 16,-293 22,-287 28,-287"/>
<text text-anchor="start" x="24" y="-550.8" font-family="consolas" font-size="14.00">Grammatical WM (t:311.0)</text>
</g>
<g id="clust5" class="cluster"><title>cluster_C2_cluster</title>
<path fill="none" stroke="white" stroke-width="2" d="M36,-295C36,-295 891.843,-295 891.843,-295 897.843,-295 903.843,-301 903.843,-307 903.843,-307 903.843,-523 903.843,-523 903.843,-529 897.843,-535 891.843,-535 891.843,-535 36,-535 36,-535 30,-535 24,-529 24,-523 24,-523 24,-307 24,-307 24,-301 30,-295 36,-295"/>
</g>
<!-- MAN_170 -->
<g id="node1" class="node"><title>MAN_170</title>
<ellipse fill="lightgrey" stroke="lightgrey" cx="1776.7" cy="-168" rx="74.187" ry="18"/>
<text text-anchor="start" x="1727.7" y="-164.3" font-family="consolas" font-size="14.00">MAN_170 (1.0)</text>
</g>
<!-- YOUNG_188 -->
<g id="node2" class="node"><title>YOUNG_188</title>
<ellipse fill="lightgrey" stroke="lightgrey" cx="1776.7" cy="-114" rx="83.6854" ry="18"/>
<text text-anchor="start" x="1720.2" y="-110.3" font-family="consolas" font-size="14.00">YOUNG_188 (1.0)</text>
</g>
<!-- PUNCH_177 -->
<g id="node3" class="node"><title>PUNCH_177</title>
<ellipse fill="lightgrey" stroke="lightgrey" cx="1458.81" cy="-168" rx="83.6854" ry="18"/>
<text text-anchor="start" x="1402.31" y="-164.3" font-family="consolas" font-size="14.00">PUNCH_177 (1.0)</text>
</g>
<!-- ENTITY_169 -->
<g id="node4" class="node"><title>ENTITY_169</title>
<ellipse fill="lightgrey" stroke="lightgrey" cx="1458.81" cy="-114" rx="89.0842" ry="18"/>
<text text-anchor="start" x="1398.31" y="-110.3" font-family="consolas" font-size="14.00">ENTITY_169 (1.0)</text>
</g>
<!-- ENTITY_169&#45;&gt;MAN_170 -->
<g id="edge1" class="edge"><title>ENTITY_169&#45;&gt;MAN_170</title>
<path fill="none" stroke="black" stroke-width="2" d="M1547.77,-115.232C1587.15,-117.447 1633.85,-122.392 1674.85,-133 1683.33,-135.193 1684.68,-137.862 1692.85,-141 1701.66,-144.381 1711.09,-147.716 1720.31,-150.828"/>
<polygon fill="black" stroke="black" stroke-width="2" points="1719.23,-154.155 1729.82,-153.982 1721.43,-147.511 1719.23,-154.155"/>
<text text-anchor="start" x="1579.35" y="-137.4" font-family="consolas" font-size="12.00">IS_171 (1.0)</text>
</g>
<!-- WOMAN_184 -->
<g id="node5" class="node"><title>WOMAN_184</title>
<ellipse fill="lightgrey" stroke="lightgrey" cx="1776.7" cy="-222" rx="83.6854" ry="18"/>
<text text-anchor="start" x="1720.2" y="-218.3" font-family="consolas" font-size="14.00">WOMAN_184 (1.0)</text>
</g>
<!-- ACTION_174 -->
<g id="node6" class="node"><title>ACTION_174</title>
<ellipse fill="lightgrey" stroke="lightgrey" cx="1129.73" cy="-222" rx="89.0842" ry="18"/>
<text text-anchor="start" x="1069.23" y="-218.3" font-family="consolas" font-size="14.00">ACTION_174 (1.0)</text>
</g>
<!-- ACTION_174&#45;&gt;PUNCH_177 -->
<g id="edge4" class="edge"><title>ACTION_174&#45;&gt;PUNCH_177</title>
<path fill="none" stroke="black" stroke-width="2" d="M1199.29,-210.68C1252.64,-201.873 1326.62,-189.659 1381.78,-180.553"/>
<polygon fill="black" stroke="black" stroke-width="2" points="1382.55,-183.973 1391.85,-178.891 1381.41,-177.066 1382.55,-183.973"/>
<text text-anchor="start" x="1253.27" y="-206.4" font-family="consolas" font-size="12.00">IS_178 (1.0)</text>
</g>
<!-- ACTION_174&#45;&gt;ENTITY_169 -->
<g id="edge2" class="edge"><title>ACTION_174&#45;&gt;ENTITY_169</title>
<path fill="none" stroke="black" stroke-width="2" d="M1160.56,-204.869C1181.39,-193.47 1210.12,-178.837 1236.77,-169 1284.26,-151.465 1339.54,-137.712 1382.93,-128.345"/>
<polygon fill="black" stroke="black" stroke-width="2" points="1383.79,-131.74 1392.85,-126.236 1382.34,-124.893 1383.79,-131.74"/>
<text text-anchor="start" x="1236.77" y="-172.4" font-family="consolas" font-size="12.00">PATIENT_180 (1.0)</text>
</g>
<!-- ENTITY_176 -->
<g id="node8" class="node"><title>ENTITY_176</title>
<ellipse fill="lightgrey" stroke="lightgrey" cx="1458.81" cy="-222" rx="89.0842" ry="18"/>
<text text-anchor="start" x="1398.31" y="-218.3" font-family="consolas" font-size="14.00">ENTITY_176 (1.0)</text>
</g>
<!-- ACTION_174&#45;&gt;ENTITY_176 -->
<g id="edge3" class="edge"><title>ACTION_174&#45;&gt;ENTITY_176</title>
<path fill="none" stroke="black" stroke-width="2" d="M1218.81,-222C1262.26,-222 1314.81,-222 1359.56,-222"/>
<polygon fill="black" stroke="black" stroke-width="2" points="1359.57,-225.5 1369.57,-222 1359.57,-218.5 1359.57,-225.5"/>
<text text-anchor="start" x="1243.27" y="-225.4" font-family="consolas" font-size="12.00">AGENT_179 (1.0)</text>
</g>
<!-- EVENT_173 -->
<g id="node7" class="node"><title>EVENT_173</title>
<ellipse fill="lightgrey" stroke="lightgrey" cx="838.843" cy="-222" rx="83.6854" ry="18"/>
<text text-anchor="start" x="782.343" y="-218.3" font-family="consolas" font-size="14.00">EVENT_173 (1.0)</text>
</g>
<!-- EVENT_173&#45;&gt;ACTION_174 -->
<g id="edge5" class="edge"><title>EVENT_173&#45;&gt;ACTION_174</title>
<path fill="none" stroke="black" stroke-width="2" d="M923.012,-222C956.54,-222 995.474,-222 1030.39,-222"/>
<polygon fill="black" stroke="black" stroke-width="2" points="1030.61,-225.5 1040.61,-222 1030.61,-218.5 1030.61,-225.5"/>
<text text-anchor="start" x="940.685" y="-225.4" font-family="consolas" font-size="12.00">IS_175 (1.0)</text>
</g>
<!-- ENTITY_176&#45;&gt;YOUNG_188 -->
<g id="edge7" class="edge"><title>ENTITY_176&#45;&gt;YOUNG_188</title>
<path fill="none" stroke="black" stroke-width="2" d="M1509.8,-207.231C1522.27,-203.391 1535.59,-199.16 1547.85,-195 1612.98,-172.909 1627.93,-163.66 1692.85,-141 1701.26,-138.067 1710.18,-135.055 1718.93,-132.156"/>
<polygon fill="black" stroke="black" stroke-width="2" points="1720.3,-135.391 1728.7,-128.941 1718.11,-128.741 1720.3,-135.391"/>
<text text-anchor="start" x="1565.85" y="-192.4" font-family="consolas" font-size="12.00">MODIFY_189 (1.0)</text>
</g>
<!-- ENTITY_176&#45;&gt;WOMAN_184 -->
<g id="edge6" class="edge"><title>ENTITY_176&#45;&gt;WOMAN_184</title>
<path fill="none" stroke="black" stroke-width="2" d="M1548.22,-222C1590.13,-222 1640.19,-222 1682.67,-222"/>
<polygon fill="black" stroke="black" stroke-width="2" points="1682.73,-225.5 1692.73,-222 1682.73,-218.5 1682.73,-225.5"/>
<text text-anchor="start" x="1579.35" y="-225.4" font-family="consolas" font-size="12.00">IS_185 (1.0)</text>
</g>
<!-- MAN_172 -->
<g id="node9" class="node"><title>MAN_172</title>
<path fill="#c383dd" stroke="#c383dd" d="M496.5,-473C496.5,-473 406.5,-473 406.5,-473 400.5,-473 394.5,-467 394.5,-461 394.5,-461 394.5,-449 394.5,-449 394.5,-443 400.5,-437 406.5,-437 406.5,-437 496.5,-437 496.5,-437 502.5,-437 508.5,-443 508.5,-449 508.5,-449 508.5,-461 508.5,-461 508.5,-467 502.5,-473 496.5,-473"/>
<text text-anchor="start" x="402.5" y="-451.3" font-family="consolas" font-size="14.00">MAN_172 (0.9)</text>
</g>
<!-- MAN_172&#45;&gt;MAN_170 -->
<g id="edge23" class="edge"><title>MAN_172&#45;&gt;MAN_170</title>
<path fill="none" stroke="#c383dd" stroke-dasharray="5,2" d="M481.634,-429.94C498.505,-413.88 518.761,-391.662 531,-368 594.378,-245.467 501.047,-77 639,-77 639,-77 639,-77 982.685,-77 1233.91,-77 1298.14,-59.4676 1547.85,-87 1605.12,-93.3142 1627.32,-80.4349 1674.85,-113 1687.06,-121.362 1681.14,-131.962 1692.85,-141 1698.53,-145.384 1704.95,-149.071 1711.64,-152.167"/>
<polygon fill="#c383dd" stroke="#c383dd" points="479.115,-427.503 474.162,-436.869 483.875,-432.636 479.115,-427.503"/>
<polygon fill="#c383dd" stroke="#c383dd" points="1710.32,-155.405 1720.89,-156.035 1713.02,-148.947 1710.32,-155.405"/>
</g>
<!-- MAN_172&#45;&gt;ENTITY_169 -->
<g id="edge24" class="edge"><title>MAN_172&#45;&gt;ENTITY_169</title>
<path fill="none" stroke="#c383dd" stroke-dasharray="5,2" d="M518.712,-459.586C574.907,-463.237 657.694,-468.047 730,-470 816.268,-472.33 838.088,-463.055 922.685,-446 1118.27,-406.569 1229.32,-471.532 1351.77,-314 1399.21,-252.966 1320.65,-200.696 1369.77,-141 1372.97,-137.115 1376.71,-133.777 1380.81,-130.91"/>
<polygon fill="#c383dd" stroke="#c383dd" points="518.745,-456.081 508.537,-458.919 518.286,-463.066 518.745,-456.081"/>
<polygon fill="#c383dd" stroke="#c383dd" points="1382.86,-133.766 1389.68,-125.664 1379.29,-127.741 1382.86,-133.766"/>
</g>
<!-- SVO_181 -->
<g id="node10" class="node"><title>SVO_181</title>
<path fill="#f65a5e" stroke="#f65a5e" d="M883.843,-358C883.843,-358 793.843,-358 793.843,-358 787.843,-358 781.843,-352 781.843,-346 781.843,-346 781.843,-334 781.843,-334 781.843,-328 787.843,-322 793.843,-322 793.843,-322 883.843,-322 883.843,-322 889.843,-322 895.843,-328 895.843,-334 895.843,-334 895.843,-346 895.843,-346 895.843,-352 889.843,-358 883.843,-358"/>
<text text-anchor="start" x="789.843" y="-336.3" font-family="consolas" font-size="14.00">SVO_181 (0.1)</text>
</g>
<!-- MAN_172&#45;&gt;SVO_181 -->
<g id="edge8" class="edge"><title>MAN_172&#45;&gt;SVO_181</title>
<path fill="none" stroke="green" stroke-width="3" d="M518.668,-443.92C528.824,-442.251 539.19,-440.566 549,-439 621.376,-427.45 642.95,-438.572 712,-414 745.814,-401.967 780.725,-380.603 805.173,-363.914"/>
<polygon fill="green" stroke="green" stroke-width="3" points="509.263,-449.525 507.961,-441.632 515.854,-440.33 517.156,-448.223 509.263,-449.525"/>
<polyline fill="none" stroke="green" stroke-width="3" points="516.505,-444.277 518.478,-443.951 "/>
<polygon fill="green" stroke="green" stroke-width="3" points="811.403,-354.717 815.967,-361.288 809.396,-365.851 804.832,-359.28 811.403,-354.717"/>
<polyline fill="none" stroke="green" stroke-width="3" points="807.114,-362.566 805.471,-363.706 "/>
</g>
<!-- PAS_SVO_182 -->
<g id="node11" class="node"><title>PAS_SVO_182</title>
<path fill="#2689df" stroke="#2689df" d="M700,-405C700,-405 580,-405 580,-405 574,-405 568,-399 568,-393 568,-393 568,-381 568,-381 568,-375 574,-369 580,-369 580,-369 700,-369 700,-369 706,-369 712,-375 712,-381 712,-381 712,-393 712,-393 712,-399 706,-405 700,-405"/>
<text text-anchor="start" x="576" y="-383.3" font-family="consolas" font-size="14.00">PAS_SVO_182 (0.8)</text>
</g>
<!-- MAN_172&#45;&gt;PAS_SVO_182 -->
<g id="edge9" class="edge"><title>MAN_172&#45;&gt;PAS_SVO_182</title>
<path fill="none" stroke="green" stroke-width="3" d="M511.421,-433.517C533.331,-425.528 558.18,-416.468 580.089,-408.48"/>
<polygon fill="green" stroke="green" stroke-width="3" points="503.359,-440.714 500.619,-433.198 508.135,-430.457 510.875,-437.973 503.359,-440.714"/>
<polyline fill="none" stroke="green" stroke-width="3" points="509.505,-434.215 511.384,-433.53 "/>
<polygon fill="green" stroke="green" stroke-width="3" points="588.233,-401.252 590.974,-408.768 583.458,-411.509 580.717,-403.993 588.233,-401.252"/>
<polyline fill="none" stroke="green" stroke-width="3" points="582.088,-407.751 580.209,-408.436 "/>
</g>
<!-- SVO_181&#45;&gt;ENTITY_169 -->
<g id="edge28" class="edge"><title>SVO_181&#45;&gt;ENTITY_169</title>
<path fill="none" stroke="#f65a5e" stroke-dasharray="5,2" d="M906.335,-348.3C1015.67,-357.895 1233.1,-359.238 1351.77,-239 1382.88,-207.481 1340.32,-174.075 1369.77,-141 1373.27,-137.071 1377.32,-133.705 1381.73,-130.824"/>
<polygon fill="#f65a5e" stroke="#f65a5e" points="906.38,-344.789 896.099,-347.35 905.732,-351.759 906.38,-344.789"/>
<polygon fill="#f65a5e" stroke="#f65a5e" points="1383.58,-133.8 1390.59,-125.859 1380.16,-127.693 1383.58,-133.8"/>
</g>
<!-- SVO_181&#45;&gt;ACTION_174 -->
<g id="edge25" class="edge"><title>SVO_181&#45;&gt;ACTION_174</title>
<path fill="none" stroke="#f65a5e" stroke-dasharray="5,2" d="M905.931,-323.192C941.255,-313.269 985.09,-299.434 1022.69,-283 1047.44,-272.181 1073.77,-257.056 1094,-244.574"/>
<polygon fill="#f65a5e" stroke="#f65a5e" points="904.909,-319.843 896.206,-325.886 906.778,-326.589 904.909,-319.843"/>
<polygon fill="#f65a5e" stroke="#f65a5e" points="1095.93,-247.496 1102.55,-239.229 1092.22,-241.559 1095.93,-247.496"/>
</g>
<!-- SVO_181&#45;&gt;EVENT_173 -->
<g id="edge26" class="edge"><title>SVO_181&#45;&gt;EVENT_173</title>
<path fill="none" stroke="#f65a5e" stroke-dasharray="5,2" d="M838.843,-311.719C838.843,-291.345 838.843,-270.972 838.843,-250.598"/>
<polygon fill="#f65a5e" stroke="#f65a5e" points="835.343,-311.721 838.843,-321.721 842.343,-311.721 835.343,-311.721"/>
<polygon fill="#f65a5e" stroke="#f65a5e" points="842.343,-250.437 838.843,-240.438 835.343,-250.438 842.343,-250.437"/>
</g>
<!-- SVO_181&#45;&gt;ENTITY_176 -->
<g id="edge27" class="edge"><title>SVO_181&#45;&gt;ENTITY_176</title>
<path fill="none" stroke="#f65a5e" stroke-dasharray="5,2" d="M906.265,-354.783C1007.29,-373.899 1203.47,-397.624 1351.77,-333 1391.5,-315.686 1423.54,-275.579 1441.64,-248.623"/>
<polygon fill="#f65a5e" stroke="#f65a5e" points="906.682,-351.299 896.198,-352.834 905.351,-358.171 906.682,-351.299"/>
<polygon fill="#f65a5e" stroke="#f65a5e" points="1444.7,-250.327 1447.23,-240.037 1438.84,-246.507 1444.7,-250.327"/>
</g>
<!-- PAS_SVO_182&#45;&gt;ENTITY_169 -->
<g id="edge30" class="edge"><title>PAS_SVO_182&#45;&gt;ENTITY_169</title>
<path fill="none" stroke="#2689df" stroke-dasharray="5,2" d="M722.499,-389.578C835.79,-391.134 1046.38,-386.638 1218.77,-341 1281.64,-324.357 1313.21,-332.364 1351.77,-280 1388.71,-229.841 1329.59,-188.604 1369.77,-141 1373.16,-136.98 1377.14,-133.547 1381.49,-130.617"/>
<polygon fill="#2689df" stroke="#2689df" points="722.231,-386.074 712.177,-389.416 722.121,-393.073 722.231,-386.074"/>
<polygon fill="#2689df" stroke="#2689df" points="1383.34,-133.592 1390.27,-125.579 1379.85,-127.52 1383.34,-133.592"/>
</g>
<!-- PAS_SVO_182&#45;&gt;ACTION_174 -->
<g id="edge32" class="edge"><title>PAS_SVO_182&#45;&gt;ACTION_174</title>
<path fill="none" stroke="#2689df" stroke-dasharray="5,2" d="M667.542,-362.061C686.2,-345.823 712.478,-325.424 739,-313 793.996,-287.238 955.614,-254.226 1052.59,-235.879"/>
<polygon fill="#2689df" stroke="#2689df" points="665.186,-359.472 660.033,-368.729 669.834,-364.705 665.186,-359.472"/>
<polygon fill="#2689df" stroke="#2689df" points="1053.46,-239.277 1062.64,-233.987 1052.16,-232.398 1053.46,-239.277"/>
</g>
<!-- PAS_SVO_182&#45;&gt;EVENT_173 -->
<g id="edge29" class="edge"><title>PAS_SVO_182&#45;&gt;EVENT_173</title>
<path fill="none" stroke="#2689df" stroke-dasharray="5,2" d="M656.902,-359.969C672.804,-334.807 699.269,-297.59 730,-273 746.181,-260.053 766.187,-249.436 784.558,-241.305"/>
<polygon fill="#2689df" stroke="#2689df" points="653.818,-358.303 651.533,-368.648 659.771,-361.985 653.818,-358.303"/>
<polygon fill="#2689df" stroke="#2689df" points="786.163,-244.425 793.986,-237.28 783.415,-237.987 786.163,-244.425"/>
</g>
<!-- PAS_SVO_182&#45;&gt;ENTITY_176 -->
<g id="edge31" class="edge"><title>PAS_SVO_182&#45;&gt;ENTITY_176</title>
<path fill="none" stroke="#2689df" stroke-dasharray="5,2" d="M666.668,-411.7C683.577,-425.317 706.966,-439.412 731,-439 1009.37,-434.23 1115.8,-502.757 1351.77,-355 1393.73,-328.724 1426.21,-279.82 1443.63,-249.197"/>
<polygon fill="#2689df" stroke="#2689df" points="668.803,-408.921 658.914,-405.119 664.274,-414.258 668.803,-408.921"/>
<polygon fill="#2689df" stroke="#2689df" points="1446.76,-250.769 1448.55,-240.326 1440.64,-247.376 1446.76,-250.769"/>
</g>
<!-- PAS_SVO_182&#45;&gt;SVO_181 -->
<g id="edge21" class="edge"><title>PAS_SVO_182&#45;&gt;SVO_181</title>
<path fill="none" stroke="red" stroke-width="3" d="M719.924,-368.155C737.857,-363.874 756.689,-359.377 773.909,-355.265"/>
<ellipse fill="red" stroke="red" stroke-width="3" cx="715.955" cy="-369.103" rx="4.00001" ry="4.00001"/>
<ellipse fill="red" stroke="red" stroke-width="3" cx="777.808" cy="-354.334" rx="4.00001" ry="4.00001"/>
</g>
<!-- PUNCH_183 -->
<g id="node12" class="node"><title>PUNCH_183</title>
<path fill="#807501" stroke="#807501" d="M504,-527C504,-527 399,-527 399,-527 393,-527 387,-521 387,-515 387,-515 387,-503 387,-503 387,-497 393,-491 399,-491 399,-491 504,-491 504,-491 510,-491 516,-497 516,-503 516,-503 516,-515 516,-515 516,-521 510,-527 504,-527"/>
<text text-anchor="start" x="395" y="-505.3" font-family="consolas" font-size="14.00">PUNCH_183 (0.9)</text>
</g>
<!-- PUNCH_183&#45;&gt;PUNCH_177 -->
<g id="edge33" class="edge"><title>PUNCH_183&#45;&gt;PUNCH_177</title>
<path fill="none" stroke="#807501" stroke-dasharray="5,2" d="M526.301,-509.431C664.817,-508.428 972.019,-497.581 1218.77,-427 1281.47,-409.064 1313.87,-418.078 1351.77,-365 1395.92,-303.165 1321.44,-253.629 1369.77,-195 1373.39,-190.605 1377.71,-186.91 1382.46,-183.806"/>
<polygon fill="#807501" stroke="#807501" points="526.202,-505.931 516.223,-509.488 526.242,-512.931 526.202,-505.931"/>
<polygon fill="#807501" stroke="#807501" points="1384.38,-186.745 1391.43,-178.833 1380.98,-180.624 1384.38,-186.745"/>
</g>
<!-- PUNCH_183&#45;&gt;ACTION_174 -->
<g id="edge34" class="edge"><title>PUNCH_183&#45;&gt;ACTION_174</title>
<path fill="none" stroke="#807501" stroke-dasharray="5,2" d="M524.945,-487.443C527.09,-485.763 529.118,-483.952 531,-482 550.661,-461.602 553.22,-384.169 568,-360 623.099,-269.901 641.071,-234.543 739,-195 851.328,-149.643 996.626,-180.72 1074.21,-203.655"/>
<polygon fill="#807501" stroke="#807501" points="522.546,-484.836 516.168,-493.296 526.43,-490.66 522.546,-484.836"/>
<polygon fill="#807501" stroke="#807501" points="1073.2,-207.006 1083.78,-206.546 1075.22,-200.304 1073.2,-207.006"/>
</g>
<!-- PUNCH_183&#45;&gt;SVO_181 -->
<g id="edge10" class="edge"><title>PUNCH_183&#45;&gt;SVO_181</title>
<path fill="none" stroke="green" stroke-width="3" d="M526.059,-493.384C579.374,-480.468 652.283,-459.451 712,-430 747.927,-412.281 784.705,-384.662 809.148,-364.691"/>
<polygon fill="green" stroke="green" stroke-width="3" points="516.931,-499.671 515.077,-491.889 522.859,-490.035 524.714,-497.817 516.931,-499.671"/>
<polyline fill="none" stroke="green" stroke-width="3" points="523.786,-493.926 525.732,-493.462 "/>
<polygon fill="green" stroke="green" stroke-width="3" points="814.395,-355.156 819.496,-361.318 813.333,-366.419 808.232,-360.257 814.395,-355.156"/>
<polyline fill="none" stroke="green" stroke-width="3" points="810.782,-363.338 809.242,-364.613 "/>
</g>
<!-- PUNCH_183&#45;&gt;PAS_SVO_182 -->
<g id="edge11" class="edge"><title>PUNCH_183&#45;&gt;PAS_SVO_182</title>
<path fill="none" stroke="green" stroke-width="3" d="M524.849,-487.077C527.008,-485.5 529.067,-483.811 531,-482 546.119,-467.835 535.313,-454.553 549,-439 559.268,-427.332 572.815,-417.628 586.272,-409.889"/>
<polygon fill="green" stroke="green" stroke-width="3" points="518.233,-495.998 513.955,-489.237 520.715,-484.96 524.993,-491.72 518.233,-495.998"/>
<polyline fill="none" stroke="green" stroke-width="3" points="522.854,-488.34 524.544,-487.27 "/>
<polygon fill="green" stroke="green" stroke-width="3" points="593.149,-401.575 596.984,-408.596 589.963,-412.431 586.128,-405.41 593.149,-401.575"/>
<polyline fill="none" stroke="green" stroke-width="3" points="588.046,-408.92 586.29,-409.879 "/>
</g>
<!-- WOMAN_186 -->
<g id="node13" class="node"><title>WOMAN_186</title>
<path fill="#f25e62" stroke="#f25e62" d="M323,-433C323,-433 218,-433 218,-433 212,-433 206,-427 206,-421 206,-421 206,-409 206,-409 206,-403 212,-397 218,-397 218,-397 323,-397 323,-397 329,-397 335,-403 335,-409 335,-409 335,-421 335,-421 335,-427 329,-433 323,-433"/>
<text text-anchor="start" x="214" y="-411.3" font-family="consolas" font-size="14.00">WOMAN_186 (0.1)</text>
</g>
<!-- WOMAN_186&#45;&gt;WOMAN_184 -->
<g id="edge36" class="edge"><title>WOMAN_186&#45;&gt;WOMAN_184</title>
<path fill="none" stroke="#f25e62" stroke-dasharray="5,2" d="M311.689,-390.939C320.272,-384.354 328.652,-376.621 335,-368 427.383,-242.532 294.69,-37 450.5,-37 450.5,-37 450.5,-37 982.685,-37 1137.42,-37 1564.66,-4.35947 1674.85,-113 1701.42,-139.196 1667.81,-167.343 1692.85,-195 1696.38,-198.895 1700.48,-202.229 1704.92,-205.085"/>
<polygon fill="#f25e62" stroke="#f25e62" points="309.509,-388.197 303.458,-396.893 313.612,-393.868 309.509,-388.197"/>
<polygon fill="#f25e62" stroke="#f25e62" points="1703.39,-208.239 1713.84,-210.005 1706.77,-202.11 1703.39,-208.239"/>
</g>
<!-- WOMAN_186&#45;&gt;ENTITY_176 -->
<g id="edge35" class="edge"><title>WOMAN_186&#45;&gt;ENTITY_176</title>
<path fill="none" stroke="#f25e62" stroke-dasharray="5,2" d="M285.774,-442.081C302.388,-470.627 332.646,-514.388 372,-536 402.828,-552.93 415.329,-546 450.5,-546 450.5,-546 450.5,-546 1130.73,-546 1244.25,-546 1272.67,-499.427 1351.77,-418 1400.6,-367.731 1433.42,-290.464 1448.44,-249.577"/>
<polygon fill="#f25e62" stroke="#f25e62" points="288.634,-440.026 280.67,-433.038 282.538,-443.467 288.634,-440.026"/>
<polygon fill="#f25e62" stroke="#f25e62" points="1451.79,-250.599 1451.87,-240.005 1445.2,-248.236 1451.79,-250.599"/>
</g>
<!-- WOMAN_186&#45;&gt;SVO_181 -->
<g id="edge12" class="edge"><title>WOMAN_186&#45;&gt;SVO_181</title>
<path fill="none" stroke="green" stroke-width="3" d="M344.95,-397.521C354.038,-395.556 363.218,-393.665 372,-392 442.216,-378.686 460.705,-380.891 531,-368 547.548,-364.965 551.348,-362.405 568,-360 605.866,-354.53 704.792,-347.924 771.745,-343.842"/>
<polygon fill="green" stroke="green" stroke-width="3" points="336.005,-403.582 334.288,-395.768 342.102,-394.051 343.819,-401.865 336.005,-403.582"/>
<polyline fill="none" stroke="green" stroke-width="3" points="342.96,-397.958 344.914,-397.529 "/>
<polygon fill="green" stroke="green" stroke-width="3" points="781.549,-339.241 782.033,-347.226 774.047,-347.71 773.564,-339.725 781.549,-339.241"/>
<polyline fill="none" stroke="green" stroke-width="3" points="773.806,-343.717 771.809,-343.838 "/>
</g>
<!-- WOMAN_186&#45;&gt;PAS_SVO_182 -->
<g id="edge13" class="edge"><title>WOMAN_186&#45;&gt;PAS_SVO_182</title>
<path fill="none" stroke="green" stroke-width="3" d="M345.234,-409.382C406.725,-404.697 494.231,-398.03 557.732,-393.192"/>
<polygon fill="green" stroke="green" stroke-width="3" points="335.398,-414.143 334.79,-406.166 342.767,-405.558 343.375,-413.535 335.398,-414.143"/>
<polyline fill="none" stroke="green" stroke-width="3" points="343.071,-409.547 345.065,-409.395 "/>
<polygon fill="green" stroke="green" stroke-width="3" points="567.406,-388.443 568.013,-396.42 560.037,-397.028 559.429,-389.051 567.406,-388.443"/>
<polyline fill="none" stroke="green" stroke-width="3" points="559.733,-393.039 557.738,-393.191 "/>
</g>
<!-- ADJUNCT_N_190 -->
<g id="node15" class="node"><title>ADJUNCT_N_190</title>
<path fill="#10436d" stroke="#10436d" d="M519,-359C519,-359 384,-359 384,-359 378,-359 372,-353 372,-347 372,-347 372,-335 372,-335 372,-329 378,-323 384,-323 384,-323 519,-323 519,-323 525,-323 531,-329 531,-335 531,-335 531,-347 531,-347 531,-353 525,-359 519,-359"/>
<text text-anchor="start" x="380" y="-337.3" font-family="consolas" font-size="14.00">ADJUNCT_N_190 (0.4)</text>
</g>
<!-- WOMAN_186&#45;&gt;ADJUNCT_N_190 -->
<g id="edge18" class="edge"><title>WOMAN_186&#45;&gt;ADJUNCT_N_190</title>
<path fill="none" stroke="green" stroke-width="3" d="M323.917,-392.992C339.39,-386.523 356.367,-379.453 372,-373 380.006,-369.695 388.48,-366.219 396.783,-362.824"/>
<polygon fill="green" stroke="green" stroke-width="3" points="316.047,-400.621 312.959,-393.241 320.339,-390.153 323.427,-397.533 316.047,-400.621"/>
<polyline fill="none" stroke="green" stroke-width="3" points="321.883,-393.843 323.728,-393.071 "/>
<polygon fill="green" stroke="green" stroke-width="3" points="404.539,-355.337 407.563,-362.743 400.157,-365.767 397.133,-358.361 404.539,-355.337"/>
<polyline fill="none" stroke="green" stroke-width="3" points="398.645,-362.064 396.793,-362.82 "/>
</g>
<!-- WOMAN2_187 -->
<g id="node14" class="node"><title>WOMAN2_187</title>
<path fill="#aa3133" stroke="#aa3133" d="M157,-460C157,-460 44,-460 44,-460 38,-460 32,-454 32,-448 32,-448 32,-436 32,-436 32,-430 38,-424 44,-424 44,-424 157,-424 157,-424 163,-424 169,-430 169,-436 169,-436 169,-448 169,-448 169,-454 163,-460 157,-460"/>
<text text-anchor="start" x="40" y="-438.3" font-family="consolas" font-size="14.00">WOMAN2_187 (0.1)</text>
</g>
<!-- WOMAN2_187&#45;&gt;WOMAN_184 -->
<g id="edge37" class="edge"><title>WOMAN2_187&#45;&gt;WOMAN_184</title>
<path fill="none" stroke="#aa3133" stroke-dasharray="5,2" d="M116.697,-469.08C142.34,-510.792 198.43,-586 269.5,-586 269.5,-586 269.5,-586 1459.81,-586 1637.91,-586 1738.22,-334.372 1766.98,-249.541"/>
<polygon fill="#aa3133" stroke="#aa3133" points="119.545,-467.023 111.408,-460.238 113.537,-470.616 119.545,-467.023"/>
<polygon fill="#aa3133" stroke="#aa3133" points="1770.3,-250.644 1770.13,-240.051 1763.66,-248.437 1770.3,-250.644"/>
</g>
<!-- WOMAN2_187&#45;&gt;ENTITY_176 -->
<g id="edge38" class="edge"><title>WOMAN2_187&#45;&gt;ENTITY_176</title>
<path fill="none" stroke="#aa3133" stroke-dasharray="5,2" d="M119.846,-468.258C147.66,-504.652 204.225,-566 269.5,-566 269.5,-566 269.5,-566 1130.73,-566 1236.97,-566 1281.38,-554.572 1351.77,-475 1411.87,-407.064 1441.24,-300.182 1452.34,-249.904"/>
<polygon fill="#aa3133" stroke="#aa3133" points="122.5,-465.962 113.721,-460.031 116.885,-470.142 122.5,-465.962"/>
<polygon fill="#aa3133" stroke="#aa3133" points="1455.77,-250.578 1454.43,-240.068 1448.92,-249.119 1455.77,-250.578"/>
</g>
<!-- WOMAN2_187&#45;&gt;SVO_181 -->
<g id="edge14" class="edge"><title>WOMAN2_187&#45;&gt;SVO_181</title>
<path fill="none" stroke="green" stroke-width="3" d="M115.843,-414.471C133.01,-384.509 164.693,-337.715 206,-314 230.777,-299.775 240.93,-304 269.5,-304 269.5,-304 269.5,-304 641,-304 685.01,-304 733.664,-312.815 771.59,-321.722"/>
<polygon fill="green" stroke="green" stroke-width="3" points="114.281,-425.502 107.29,-421.611 111.181,-414.621 118.172,-418.512 114.281,-425.502"/>
<polyline fill="none" stroke="green" stroke-width="3" points="114.676,-416.567 115.649,-414.819 "/>
<polygon fill="green" stroke="green" stroke-width="3" points="782.426,-320.216 780.553,-327.994 772.775,-326.121 774.648,-318.343 782.426,-320.216"/>
<polyline fill="none" stroke="green" stroke-width="3" points="773.712,-322.232 771.767,-321.764 "/>
</g>
<!-- WOMAN2_187&#45;&gt;PAS_SVO_182 -->
<g id="edge15" class="edge"><title>WOMAN2_187&#45;&gt;PAS_SVO_182</title>
<path fill="none" stroke="green" stroke-width="3" d="M179.155,-448.958C224.887,-451.333 283.654,-451.389 335,-442 352.295,-438.837 354.949,-432.291 372,-428 441.125,-410.605 460.599,-418.16 531,-407 539.783,-405.608 548.949,-404.059 558.069,-402.457"/>
<polygon fill="green" stroke="green" stroke-width="3" points="168.785,-452.376 169.238,-444.389 177.225,-444.843 176.772,-452.83 168.785,-452.376"/>
<polyline fill="none" stroke="green" stroke-width="3" points="176.999,-448.836 178.995,-448.949 "/>
<polygon fill="green" stroke="green" stroke-width="3" points="567.224,-396.765 568.626,-404.641 560.75,-406.043 559.348,-398.167 567.224,-396.765"/>
<polyline fill="none" stroke="green" stroke-width="3" points="560.049,-402.105 558.08,-402.455 "/>
</g>
<!-- WOMAN2_187&#45;&gt;WOMAN_186 -->
<g id="edge22" class="edge"><title>WOMAN2_187&#45;&gt;WOMAN_186</title>
<path fill="none" stroke="red" stroke-width="3" d="M177.291,-429.819C184.126,-428.721 191.034,-427.611 197.832,-426.518"/>
<ellipse fill="red" stroke="red" stroke-width="3" cx="173.297" cy="-430.461" rx="4.00001" ry="4.00001"/>
<ellipse fill="red" stroke="red" stroke-width="3" cx="201.801" cy="-425.88" rx="4.00001" ry="4.00001"/>
</g>
<!-- WOMAN2_187&#45;&gt;ADJUNCT_N_190 -->
<g id="edge19" class="edge"><title>WOMAN2_187&#45;&gt;ADJUNCT_N_190</title>
<path fill="none" stroke="green" stroke-width="3" d="M138.919,-418.907C158.287,-407.941 182.704,-395.601 206,-388 261.157,-370.004 278.045,-379.056 335,-368 345.447,-365.972 356.383,-363.663 367.185,-361.268"/>
<polygon fill="green" stroke="green" stroke-width="3" points="132.122,-427.453 128.12,-420.526 135.047,-416.524 139.049,-423.451 132.122,-427.453"/>
<polyline fill="none" stroke="green" stroke-width="3" points="137.048,-419.987 138.78,-418.987 "/>
<polygon fill="green" stroke="green" stroke-width="3" points="376.173,-355.148 377.927,-362.953 370.122,-364.708 368.367,-356.902 376.173,-355.148"/>
<polyline fill="none" stroke="green" stroke-width="3" points="369.245,-360.805 367.293,-361.244 "/>
</g>
<!-- ADJUNCT_N_190&#45;&gt;YOUNG_188 -->
<g id="edge39" class="edge"><title>ADJUNCT_N_190&#45;&gt;YOUNG_188</title>
<path fill="none" stroke="#10436d" stroke-dasharray="5,2" d="M453.705,-312.621C457.701,-257.037 474.916,-133.864 549,-72 580.126,-46.0078 598.448,-57 639,-57 639,-57 639,-57 982.685,-57 1136.5,-57 1526.84,-10.1387 1674.85,-52 1701.38,-59.503 1727.8,-76.1674 1746.94,-90.3315"/>
<polygon fill="#10436d" stroke="#10436d" points="450.2,-312.6 453.069,-322.799 457.186,-313.036 450.2,-312.6"/>
<polygon fill="#10436d" stroke="#10436d" points="1744.85,-93.145 1754.93,-96.4176 1749.09,-87.5753 1744.85,-93.145"/>
</g>
<!-- ADJUNCT_N_190&#45;&gt;ENTITY_176 -->
<g id="edge40" class="edge"><title>ADJUNCT_N_190&#45;&gt;ENTITY_176</title>
<path fill="none" stroke="#10436d" stroke-dasharray="5,2" d="M483.489,-365.177C505.799,-381.395 537.263,-401.925 568,-414 837.435,-519.845 935.871,-502.376 1218.77,-441 1280.64,-427.577 1302.82,-430.149 1351.77,-390 1398.69,-351.512 1431.21,-286.564 1446.96,-249.713"/>
<polygon fill="#10436d" stroke="#10436d" points="485.529,-362.332 475.408,-359.198 481.366,-367.959 485.529,-362.332"/>
<polygon fill="#10436d" stroke="#10436d" points="1450.34,-250.687 1450.95,-240.11 1443.88,-247.999 1450.34,-250.687"/>
</g>
<!-- ADJUNCT_N_190&#45;&gt;SVO_181 -->
<g id="edge16" class="edge"><title>ADJUNCT_N_190&#45;&gt;SVO_181</title>
<path fill="none" stroke="green" stroke-width="3" d="M541.661,-340.769C611.825,-340.587 708.034,-340.337 771.516,-340.172"/>
<polygon fill="green" stroke="green" stroke-width="3" points="531.42,-344.795 531.399,-336.795 539.399,-336.774 539.42,-344.774 531.42,-344.795"/>
<polyline fill="none" stroke="green" stroke-width="3" points="539.41,-340.774 541.41,-340.769 "/>
<polygon fill="green" stroke="green" stroke-width="3" points="781.793,-336.145 781.814,-344.145 773.814,-344.166 773.793,-336.166 781.793,-336.145"/>
<polyline fill="none" stroke="green" stroke-width="3" points="773.803,-340.166 771.803,-340.171 "/>
</g>
<!-- ADJUNCT_N_190&#45;&gt;PAS_SVO_182 -->
<g id="edge17" class="edge"><title>ADJUNCT_N_190&#45;&gt;PAS_SVO_182</title>
<path fill="none" stroke="green" stroke-width="3" d="M535.519,-361.476C543.024,-363.328 550.619,-365.201 558.106,-367.048"/>
<polygon fill="green" stroke="green" stroke-width="3" points="524.717,-362.932 526.632,-355.165 534.4,-357.081 532.484,-364.848 524.717,-362.932"/>
<polyline fill="none" stroke="green" stroke-width="3" points="533.442,-360.964 535.383,-361.443 "/>
<polygon fill="green" stroke="green" stroke-width="3" points="568.827,-365.572 566.911,-373.339 559.144,-371.423 561.059,-363.656 568.827,-365.572"/>
<polyline fill="none" stroke="green" stroke-width="3" points="560.102,-367.54 558.16,-367.061 "/>
</g>
<!-- YOUNG_191 -->
<g id="node16" class="node"><title>YOUNG_191</title>
<path fill="#33dc89" stroke="#33dc89" d="M323,-359C323,-359 218,-359 218,-359 212,-359 206,-353 206,-347 206,-347 206,-335 206,-335 206,-329 212,-323 218,-323 218,-323 323,-323 323,-323 329,-323 335,-329 335,-335 335,-335 335,-347 335,-347 335,-353 329,-359 323,-359"/>
<text text-anchor="start" x="214" y="-337.3" font-family="consolas" font-size="14.00">YOUNG_191 (0.4)</text>
</g>
<!-- YOUNG_191&#45;&gt;YOUNG_188 -->
<g id="edge41" class="edge"><title>YOUNG_191&#45;&gt;YOUNG_188</title>
<path fill="none" stroke="#33dc89" stroke-dasharray="5,2" d="M271.818,-312.683C274.131,-251.672 288.637,-107.337 372,-33 398.575,-9.30233 414.894,-17 450.5,-17 450.5,-17 450.5,-17 1459.81,-17 1555.65,-17 1585.69,2.1465 1674.85,-33 1705.47,-45.0683 1734.08,-69.8632 1752.95,-88.8592"/>
<polygon fill="#33dc89" stroke="#33dc89" points="268.318,-312.639 271.521,-322.738 275.315,-312.845 268.318,-312.639"/>
<polygon fill="#33dc89" stroke="#33dc89" points="1750.46,-91.321 1759.93,-96.0741 1755.49,-86.4536 1750.46,-91.321"/>
</g>
<!-- YOUNG_191&#45;&gt;ADJUNCT_N_190 -->
<g id="edge20" class="edge"><title>YOUNG_191&#45;&gt;ADJUNCT_N_190</title>
<path fill="none" stroke="green" stroke-width="3" d="M345.254,-341C350.579,-341 355.98,-341 361.379,-341"/>
<polygon fill="green" stroke="green" stroke-width="3" points="335.113,-345 335.113,-337 343.113,-337 343.113,-345 335.113,-345"/>
<polyline fill="none" stroke="green" stroke-width="3" points="343.113,-341 345.113,-341 "/>
<polygon fill="green" stroke="green" stroke-width="3" points="371.74,-337 371.74,-345 363.74,-345 363.74,-337 371.74,-337"/>
<polyline fill="none" stroke="green" stroke-width="3" points="363.74,-341 361.74,-341 "/>
</g>
</g>
</svg>
