<?xml version="1.0" encoding="UTF-8" standalone="no"?>
<!DOCTYPE svg PUBLIC "-//W3C//DTD SVG 1.1//EN"
 "http://www.w3.org/Graphics/SVG/1.1/DTD/svg11.dtd">
<!-- Generated by graphviz version 2.38.0 (20140413.2041)
 -->
<!-- Title: LinguisticWM_concise Pages: 1 -->
<svg width="1484pt" height="392pt"
 viewBox="0.00 0.00 1484.04 392.00" xmlns="http://www.w3.org/2000/svg" xmlns:xlink="http://www.w3.org/1999/xlink">
<g id="graph0" class="graph" transform="scale(1 1) rotate(0) translate(4 388)">
<title>LinguisticWM_concise</title>
<polygon fill="white" stroke="none" points="-4,4 -4,-388 1480.04,-388 1480.04,4 -4,4"/>
<g id="clust1" class="cluster"><title>cluster_linguisticWM</title>
<path fill="none" stroke="black" stroke-width="2" d="M20,-8C20,-8 1456.04,-8 1456.04,-8 1462.04,-8 1468.04,-14 1468.04,-20 1468.04,-20 1468.04,-364 1468.04,-364 1468.04,-370 1462.04,-376 1456.04,-376 1456.04,-376 20,-376 20,-376 14,-376 8,-370 8,-364 8,-364 8,-20 8,-20 8,-14 14,-8 20,-8"/>
</g>
<g id="clust2" class="cluster"><title>cluster_semWM</title>
<path fill="none" stroke="black" stroke-width="2" d="M381,-169C381,-169 1448.04,-169 1448.04,-169 1454.04,-169 1460.04,-175 1460.04,-181 1460.04,-181 1460.04,-356 1460.04,-356 1460.04,-362 1454.04,-368 1448.04,-368 1448.04,-368 381,-368 381,-368 375,-368 369,-362 369,-356 369,-356 369,-181 369,-181 369,-175 375,-169 381,-169"/>
<text text-anchor="start" x="377" y="-352.8" font-family="consolas" font-size="14.00">Semantic WM (t:111.0)</text>
</g>
<g id="clust3" class="cluster"><title>cluster_SemRep</title>
<path fill="none" stroke="white" stroke-width="2" d="M389,-177C389,-177 1440.04,-177 1440.04,-177 1446.04,-177 1452.04,-183 1452.04,-189 1452.04,-189 1452.04,-325 1452.04,-325 1452.04,-331 1446.04,-337 1440.04,-337 1440.04,-337 389,-337 389,-337 383,-337 377,-331 377,-325 377,-325 377,-189 377,-189 377,-183 383,-177 389,-177"/>
</g>
<g id="clust4" class="cluster"><title>cluster_gramWM</title>
<path fill="none" stroke="black" stroke-width="2" d="M28,-16C28,-16 529.843,-16 529.843,-16 535.843,-16 541.843,-22 541.843,-28 541.843,-28 541.843,-149 541.843,-149 541.843,-155 535.843,-161 529.843,-161 529.843,-161 28,-161 28,-161 22,-161 16,-155 16,-149 16,-149 16,-28 16,-28 16,-22 22,-16 28,-16"/>
<text text-anchor="start" x="24" y="-145.8" font-family="consolas" font-size="14.00">Grammatical WM (t:111.0)</text>
</g>
<g id="clust5" class="cluster"><title>cluster_C2_cluster</title>
<path fill="none" stroke="white" stroke-width="2" d="M36,-24C36,-24 521.843,-24 521.843,-24 527.843,-24 533.843,-30 533.843,-36 533.843,-36 533.843,-118 533.843,-118 533.843,-124 527.843,-130 521.843,-130 521.843,-130 36,-130 36,-130 30,-130 24,-124 24,-118 24,-118 24,-36 24,-36 24,-30 30,-24 36,-24"/>
</g>
<!-- MAN_170 -->
<g id="node1" class="node"><title>MAN_170</title>
<ellipse fill="lightgrey" stroke="lightgrey" cx="1369.95" cy="-297" rx="74.187" ry="18"/>
<text text-anchor="start" x="1320.95" y="-293.3" font-family="consolas" font-size="14.00">MAN_170 (1.0)</text>
</g>
<!-- PUNCH_177 -->
<g id="node2" class="node"><title>PUNCH_177</title>
<ellipse fill="lightgrey" stroke="lightgrey" cx="1088.81" cy="-311" rx="83.6854" ry="18"/>
<text text-anchor="start" x="1032.31" y="-307.3" font-family="consolas" font-size="14.00">PUNCH_177 (1.0)</text>
</g>
<!-- ENTITY_169 -->
<g id="node3" class="node"><title>ENTITY_169</title>
<ellipse fill="lightgrey" stroke="lightgrey" cx="1088.81" cy="-257" rx="89.0842" ry="18"/>
<text text-anchor="start" x="1028.31" y="-253.3" font-family="consolas" font-size="14.00">ENTITY_169 (1.0)</text>
</g>
<!-- ENTITY_169&#45;&gt;MAN_170 -->
<g id="edge1" class="edge"><title>ENTITY_169&#45;&gt;MAN_170</title>
<path fill="none" stroke="black" stroke-width="2" d="M1162.06,-267.353C1203.1,-273.234 1254.35,-280.578 1295.57,-286.485"/>
<polygon fill="black" stroke="black" stroke-width="2" points="1295.16,-289.962 1305.55,-287.916 1296.15,-283.032 1295.16,-289.962"/>
<text text-anchor="start" x="1195.85" y="-286.4" font-family="consolas" font-size="12.00">IS_171 (1.0)</text>
</g>
<!-- ACTION_174 -->
<g id="node4" class="node"><title>ACTION_174</title>
<ellipse fill="lightgrey" stroke="lightgrey" cx="759.727" cy="-239" rx="89.0842" ry="18"/>
<text text-anchor="start" x="699.227" y="-235.3" font-family="consolas" font-size="14.00">ACTION_174 (1.0)</text>
</g>
<!-- ACTION_174&#45;&gt;PUNCH_177 -->
<g id="edge4" class="edge"><title>ACTION_174&#45;&gt;PUNCH_177</title>
<path fill="none" stroke="black" stroke-width="2" d="M820.72,-252.206C876.944,-264.583 960.909,-283.065 1019.64,-295.994"/>
<polygon fill="black" stroke="black" stroke-width="2" points="1019.06,-299.449 1029.57,-298.18 1020.56,-292.612 1019.06,-299.449"/>
<text text-anchor="start" x="883.269" y="-291.4" font-family="consolas" font-size="12.00">IS_178 (1.0)</text>
</g>
<!-- ACTION_174&#45;&gt;ENTITY_169 -->
<g id="edge2" class="edge"><title>ACTION_174&#45;&gt;ENTITY_169</title>
<path fill="none" stroke="black" stroke-width="2" d="M847.998,-236.296C888.712,-235.829 937.785,-236.397 981.769,-240 991.734,-240.816 1002.18,-242.037 1012.46,-243.456"/>
<polygon fill="black" stroke="black" stroke-width="2" points="1012.27,-246.965 1022.67,-244.934 1013.27,-240.037 1012.27,-246.965"/>
<text text-anchor="start" x="866.769" y="-243.4" font-family="consolas" font-size="12.00">PATIENT_180 (1.0)</text>
</g>
<!-- ENTITY_176 -->
<g id="node6" class="node"><title>ENTITY_176</title>
<ellipse fill="lightgrey" stroke="lightgrey" cx="1088.81" cy="-203" rx="89.0842" ry="18"/>
<text text-anchor="start" x="1028.31" y="-199.3" font-family="consolas" font-size="14.00">ENTITY_176 (1.0)</text>
</g>
<!-- ACTION_174&#45;&gt;ENTITY_176 -->
<g id="edge3" class="edge"><title>ACTION_174&#45;&gt;ENTITY_176</title>
<path fill="none" stroke="black" stroke-width="2" d="M824.211,-226.553C838.19,-224.112 852.948,-221.765 866.769,-220 907.774,-214.763 953.279,-210.928 992.291,-208.241"/>
<polygon fill="black" stroke="black" stroke-width="2" points="992.844,-211.711 1002.59,-207.547 992.373,-204.727 992.844,-211.711"/>
<text text-anchor="start" x="873.269" y="-223.4" font-family="consolas" font-size="12.00">AGENT_179 (1.0)</text>
</g>
<!-- EVENT_173 -->
<g id="node5" class="node"><title>EVENT_173</title>
<ellipse fill="lightgrey" stroke="lightgrey" cx="468.843" cy="-203" rx="83.6854" ry="18"/>
<text text-anchor="start" x="412.343" y="-199.3" font-family="consolas" font-size="14.00">EVENT_173 (1.0)</text>
</g>
<!-- EVENT_173&#45;&gt;ACTION_174 -->
<g id="edge5" class="edge"><title>EVENT_173&#45;&gt;ACTION_174</title>
<path fill="none" stroke="black" stroke-width="2" d="M546.46,-210.008C579.228,-213.251 617.881,-217.406 652.685,-222 661.877,-223.213 671.499,-224.597 681.037,-226.039"/>
<polygon fill="black" stroke="black" stroke-width="2" points="680.51,-229.498 690.925,-227.557 681.572,-222.58 680.51,-229.498"/>
<text text-anchor="start" x="570.685" y="-225.4" font-family="consolas" font-size="12.00">IS_175 (1.0)</text>
</g>
<!-- MAN_172 -->
<g id="node7" class="node"><title>MAN_172</title>
<path fill="#c383dd" stroke="#c383dd" d="M141.5,-122C141.5,-122 51.5,-122 51.5,-122 45.5,-122 39.5,-116 39.5,-110 39.5,-110 39.5,-98 39.5,-98 39.5,-92 45.5,-86 51.5,-86 51.5,-86 141.5,-86 141.5,-86 147.5,-86 153.5,-92 153.5,-98 153.5,-98 153.5,-110 153.5,-110 153.5,-116 147.5,-122 141.5,-122"/>
<text text-anchor="start" x="47.5" y="-100.3" font-family="consolas" font-size="14.00">MAN_172 (0.7)</text>
</g>
<!-- MAN_172&#45;&gt;MAN_170 -->
<g id="edge11" class="edge"><title>MAN_172&#45;&gt;MAN_170</title>
<path fill="none" stroke="#c383dd" stroke-dasharray="5,2" d="M102.909,-132.076C112.346,-175.351 135.135,-259.371 179,-317 204.624,-350.664 226.694,-348 269,-348 269,-348 269,-348 1089.81,-348 1167.89,-348 1256.27,-328.454 1312.28,-313.563"/>
<polygon fill="#c383dd" stroke="#c383dd" points="106.324,-131.307 100.843,-122.24 99.4736,-132.746 106.324,-131.307"/>
<polygon fill="#c383dd" stroke="#c383dd" points="1313.27,-316.922 1322.01,-310.936 1311.44,-310.164 1313.27,-316.922"/>
</g>
<!-- MAN_172&#45;&gt;ENTITY_169 -->
<g id="edge12" class="edge"><title>MAN_172&#45;&gt;ENTITY_169</title>
<path fill="none" stroke="#c383dd" stroke-dasharray="5,2" d="M99.9129,-132.24C105.404,-177.719 123.079,-266.663 179,-312 210.5,-337.538 228.448,-327 269,-327 269,-327 269,-327 612.685,-327 777.3,-327 826.354,-350.26 981.769,-296 990.847,-292.831 991.082,-288.12 999.769,-284 1007.25,-280.455 1015.3,-277.24 1023.38,-274.366"/>
<polygon fill="#c383dd" stroke="#c383dd" points="103.38,-131.745 98.8136,-122.184 96.4212,-132.506 103.38,-131.745"/>
<polygon fill="#c383dd" stroke="#c383dd" points="1024.52,-277.678 1032.86,-271.15 1022.27,-271.049 1024.52,-277.678"/>
</g>
<!-- SVO_181 -->
<g id="node8" class="node"><title>SVO_181</title>
<path fill="#f65a5e" stroke="#f65a5e" d="M513.843,-122C513.843,-122 423.843,-122 423.843,-122 417.843,-122 411.843,-116 411.843,-110 411.843,-110 411.843,-98 411.843,-98 411.843,-92 417.843,-86 423.843,-86 423.843,-86 513.843,-86 513.843,-86 519.843,-86 525.843,-92 525.843,-98 525.843,-98 525.843,-110 525.843,-110 525.843,-116 519.843,-122 513.843,-122"/>
<text text-anchor="start" x="419.843" y="-100.3" font-family="consolas" font-size="14.00">SVO_181 (0.3)</text>
</g>
<!-- MAN_172&#45;&gt;SVO_181 -->
<g id="edge6" class="edge"><title>MAN_172&#45;&gt;SVO_181</title>
<path fill="none" stroke="green" stroke-width="3" d="M163.476,-83.6449C174.886,-80.8835 186.71,-78.4902 198,-77 261.45,-68.6254 278.357,-70.2494 342,-77 361.584,-79.0773 382.6,-82.9246 401.739,-87.0769"/>
<polygon fill="green" stroke="green" stroke-width="3" points="154.563,-90.0303 152.597,-82.2754 160.352,-80.3101 162.318,-88.065 154.563,-90.0303"/>
<polyline fill="none" stroke="green" stroke-width="3" points="161.335,-84.1875 163.274,-83.6962 "/>
<polygon fill="green" stroke="green" stroke-width="3" points="412.431,-85.3643 410.689,-93.1723 402.881,-91.4299 404.623,-83.6219 412.431,-85.3643"/>
<polyline fill="none" stroke="green" stroke-width="3" points="403.752,-87.5259 401.8,-87.0903 "/>
</g>
<!-- PAS_SVO_182 -->
<g id="node9" class="node"><title>PAS_SVO_182</title>
<path fill="#2689df" stroke="#2689df" d="M330,-122C330,-122 210,-122 210,-122 204,-122 198,-116 198,-110 198,-110 198,-98 198,-98 198,-92 204,-86 210,-86 210,-86 330,-86 330,-86 336,-86 342,-92 342,-98 342,-98 342,-110 342,-110 342,-116 336,-122 330,-122"/>
<text text-anchor="start" x="206" y="-100.3" font-family="consolas" font-size="14.00">PAS_SVO_182 (0.3)</text>
</g>
<!-- MAN_172&#45;&gt;PAS_SVO_182 -->
<g id="edge7" class="edge"><title>MAN_172&#45;&gt;PAS_SVO_182</title>
<path fill="none" stroke="green" stroke-width="3" d="M163.723,-104C171.548,-104 179.603,-104 187.607,-104"/>
<polygon fill="green" stroke="green" stroke-width="3" points="153.655,-108 153.656,-100 161.656,-100 161.655,-108 153.655,-108"/>
<polyline fill="none" stroke="green" stroke-width="3" points="161.656,-104 163.656,-104 "/>
<polygon fill="green" stroke="green" stroke-width="3" points="197.696,-100 197.697,-108 189.697,-108 189.696,-100 197.696,-100"/>
<polyline fill="none" stroke="green" stroke-width="3" points="189.696,-104 187.696,-104 "/>
</g>
<!-- SVO_181&#45;&gt;ENTITY_169 -->
<g id="edge16" class="edge"><title>SVO_181&#45;&gt;ENTITY_169</title>
<path fill="none" stroke="#f65a5e" stroke-dasharray="5,2" d="M536.397,-102.592C639.682,-103.447 841.276,-117.529 981.769,-206 993.052,-213.105 988.859,-222.335 999.769,-230 1005.31,-233.89 1011.42,-237.232 1017.77,-240.101"/>
<polygon fill="#f65a5e" stroke="#f65a5e" points="536.125,-99.0905 526.11,-102.548 536.095,-106.09 536.125,-99.0905"/>
<polygon fill="#f65a5e" stroke="#f65a5e" points="1016.61,-243.411 1027.19,-243.974 1019.27,-236.936 1016.61,-243.411"/>
</g>
<!-- SVO_181&#45;&gt;ACTION_174 -->
<g id="edge13" class="edge"><title>SVO_181&#45;&gt;ACTION_174</title>
<path fill="none" stroke="#f65a5e" stroke-dasharray="5,2" d="M517.813,-126.417C572.487,-151.967 661.131,-193.392 714.288,-218.233"/>
<polygon fill="#f65a5e" stroke="#f65a5e" points="519.044,-123.129 508.503,-122.067 516.081,-129.471 519.044,-123.129"/>
<polygon fill="#f65a5e" stroke="#f65a5e" points="712.923,-221.458 723.464,-222.521 715.886,-215.116 712.923,-221.458"/>
</g>
<!-- SVO_181&#45;&gt;EVENT_173 -->
<g id="edge14" class="edge"><title>SVO_181&#45;&gt;EVENT_173</title>
<path fill="none" stroke="#f65a5e" stroke-dasharray="5,2" d="M468.843,-132.432C468.843,-146.448 468.843,-160.465 468.843,-174.482"/>
<polygon fill="#f65a5e" stroke="#f65a5e" points="472.343,-132.176 468.843,-122.176 465.343,-132.176 472.343,-132.176"/>
<polygon fill="#f65a5e" stroke="#f65a5e" points="465.343,-174.688 468.843,-184.688 472.343,-174.688 465.343,-174.688"/>
</g>
<!-- SVO_181&#45;&gt;ENTITY_176 -->
<g id="edge15" class="edge"><title>SVO_181&#45;&gt;ENTITY_176</title>
<path fill="none" stroke="#f65a5e" stroke-dasharray="5,2" d="M536.133,-99.0715C635.485,-93.7988 827.782,-91.8357 981.769,-140 1009.13,-148.558 1036.87,-165.394 1057.12,-179.51"/>
<polygon fill="#f65a5e" stroke="#f65a5e" points="535.729,-95.5886 525.94,-99.6417 536.12,-102.578 535.729,-95.5886"/>
<polygon fill="#f65a5e" stroke="#f65a5e" points="1055.14,-182.398 1065.31,-185.361 1059.21,-176.701 1055.14,-182.398"/>
</g>
<!-- PAS_SVO_182&#45;&gt;ENTITY_169 -->
<g id="edge18" class="edge"><title>PAS_SVO_182&#45;&gt;ENTITY_169</title>
<path fill="none" stroke="#2689df" stroke-dasharray="5,2" d="M281.52,-131.891C295.771,-165.371 324.641,-220.221 369,-246 464.994,-301.787 755.845,-284.218 866.769,-289 917.833,-291.201 931.206,-296.463 981.769,-289 984.518,-288.594 1006.4,-282.033 1029.58,-274.956"/>
<polygon fill="#2689df" stroke="#2689df" points="284.597,-130.169 277.566,-122.243 278.12,-132.823 284.597,-130.169"/>
<polygon fill="#2689df" stroke="#2689df" points="1030.64,-278.289 1039.18,-272.016 1028.6,-271.595 1030.64,-278.289"/>
</g>
<!-- PAS_SVO_182&#45;&gt;ACTION_174 -->
<g id="edge20" class="edge"><title>PAS_SVO_182&#45;&gt;ACTION_174</title>
<path fill="none" stroke="#2689df" stroke-dasharray="5,2" d="M283.335,-131.575C298.589,-161.923 327.698,-209.161 369,-230 418.97,-255.211 567.051,-251.602 665.609,-245.89"/>
<polygon fill="#2689df" stroke="#2689df" points="286.384,-129.841 278.871,-122.371 280.085,-132.896 286.384,-129.841"/>
<polygon fill="#2689df" stroke="#2689df" points="666.106,-249.366 675.88,-245.277 665.689,-242.379 666.106,-249.366"/>
</g>
<!-- PAS_SVO_182&#45;&gt;EVENT_173 -->
<g id="edge17" class="edge"><title>PAS_SVO_182&#45;&gt;EVENT_173</title>
<path fill="none" stroke="#2689df" stroke-dasharray="5,2" d="M316.461,-126.864C349.409,-143.435 393.635,-165.678 425.772,-181.841"/>
<polygon fill="#2689df" stroke="#2689df" points="317.61,-123.525 307.104,-122.158 314.465,-129.778 317.61,-123.525"/>
<polygon fill="#2689df" stroke="#2689df" points="424.406,-185.072 434.913,-186.438 427.552,-178.818 424.406,-185.072"/>
</g>
<!-- PAS_SVO_182&#45;&gt;ENTITY_176 -->
<g id="edge19" class="edge"><title>PAS_SVO_182&#45;&gt;ENTITY_176</title>
<path fill="none" stroke="#2689df" stroke-dasharray="5,2" d="M336.257,-83.4123C347.092,-80.7496 358.288,-78.4486 369,-77 639.276,-40.449 733.133,2.09425 981.769,-110 1015.97,-125.417 1047.21,-155.684 1066.79,-177.508"/>
<polygon fill="#2689df" stroke="#2689df" points="335.242,-80.0595 326.432,-85.9451 336.989,-86.8379 335.242,-80.0595"/>
<polygon fill="#2689df" stroke="#2689df" points="1064.23,-179.906 1073.45,-185.123 1069.5,-175.294 1064.23,-179.906"/>
</g>
<!-- PAS_SVO_182&#45;&gt;SVO_181 -->
<g id="edge10" class="edge"><title>PAS_SVO_182&#45;&gt;SVO_181</title>
<path fill="none" stroke="red" stroke-width="3" d="M350.197,-104C367.899,-104 386.464,-104 403.481,-104"/>
<ellipse fill="red" stroke="red" stroke-width="3" cx="346.065" cy="-104" rx="4" ry="4"/>
<ellipse fill="red" stroke="red" stroke-width="3" cx="407.699" cy="-104" rx="4" ry="4"/>
</g>
<!-- PUNCH_183 -->
<g id="node10" class="node"><title>PUNCH_183</title>
<path fill="#807501" stroke="#807501" d="M149,-68C149,-68 44,-68 44,-68 38,-68 32,-62 32,-56 32,-56 32,-44 32,-44 32,-38 38,-32 44,-32 44,-32 149,-32 149,-32 155,-32 161,-38 161,-44 161,-44 161,-56 161,-56 161,-62 155,-68 149,-68"/>
<text text-anchor="start" x="40" y="-46.3" font-family="consolas" font-size="14.00">PUNCH_183 (0.4)</text>
</g>
<!-- PUNCH_183&#45;&gt;PUNCH_177 -->
<g id="edge21" class="edge"><title>PUNCH_183&#45;&gt;PUNCH_177</title>
<path fill="none" stroke="#807501" stroke-dasharray="5,2" d="M158.601,-74.562C159.428,-75.3502 160.229,-76.1626 161,-77 178.75,-96.2873 187.064,-165.178 198,-189 223.535,-244.625 207.794,-307 269,-307 269,-307 269,-307 612.685,-307 745.402,-307 898.963,-308.58 994.75,-309.754"/>
<polygon fill="#807501" stroke="#807501" points="160.511,-71.6083 150.512,-68.1049 156.143,-77.079 160.511,-71.6083"/>
<polygon fill="#807501" stroke="#807501" points="994.944,-313.256 1004.99,-309.88 995.031,-306.257 994.944,-313.256"/>
</g>
<!-- PUNCH_183&#45;&gt;ACTION_174 -->
<g id="edge22" class="edge"><title>PUNCH_183&#45;&gt;ACTION_174</title>
<path fill="none" stroke="#807501" stroke-dasharray="5,2" d="M156.227,-73.3901C157.875,-74.5449 159.471,-75.7478 161,-77 183.511,-95.4304 177.339,-110.517 198,-131 263.043,-195.481 281.942,-217.551 369,-246 476.026,-280.974 608.559,-267.529 688.234,-253.83"/>
<polygon fill="#807501" stroke="#807501" points="157.961,-70.3464 147.626,-68.0115 154.249,-76.2814 157.961,-70.3464"/>
<polygon fill="#807501" stroke="#807501" points="688.923,-257.263 698.161,-252.075 687.704,-250.37 688.923,-257.263"/>
</g>
<!-- PUNCH_183&#45;&gt;SVO_181 -->
<g id="edge8" class="edge"><title>PUNCH_183&#45;&gt;SVO_181</title>
<path fill="none" stroke="green" stroke-width="3" d="M171.163,-51.4912C219.947,-53.4408 285.175,-57.8908 342,-68 362.479,-71.6432 384.402,-77.2837 404.118,-83.0273"/>
<polygon fill="green" stroke="green" stroke-width="3" points="160.863,-55.1091 161.161,-47.1147 169.156,-47.4134 168.857,-55.4079 160.863,-55.1091"/>
<polyline fill="none" stroke="green" stroke-width="3" points="169.006,-51.4106 171.005,-51.4853 "/>
<polygon fill="green" stroke="green" stroke-width="3" points="415.045,-82.1041 412.764,-89.7721 405.096,-87.4913 407.377,-79.8233 415.045,-82.1041"/>
<polyline fill="none" stroke="green" stroke-width="3" points="406.236,-83.6573 404.319,-83.0871 "/>
</g>
<!-- PUNCH_183&#45;&gt;PAS_SVO_182 -->
<g id="edge9" class="edge"><title>PUNCH_183&#45;&gt;PAS_SVO_182</title>
<path fill="none" stroke="green" stroke-width="3" d="M165.056,-71.2712C177.197,-75.0941 189.849,-79.0777 201.975,-82.896"/>
<polygon fill="green" stroke="green" stroke-width="3" points="153.883,-71.9468 156.285,-64.3161 163.916,-66.7188 161.513,-74.3495 153.883,-71.9468"/>
<polyline fill="none" stroke="green" stroke-width="3" points="162.715,-70.5342 164.622,-71.1348 "/>
<polygon fill="green" stroke="green" stroke-width="3" points="212.769,-82.1011 210.367,-89.7318 202.736,-87.329 205.139,-79.6984 212.769,-82.1011"/>
<polyline fill="none" stroke="green" stroke-width="3" points="203.937,-83.5137 202.03,-82.913 "/>
</g>
</g>
</svg>
